AmstelvarA2-Italic_YOFI214.ufo
<glyph name="zero" format="2">
	<unicode hex="0030"/>
	<advance width="1176"/>
	<outline>
		<contour>
			<point x="66" y="746" type="qcurve" smooth="yes"/>
			<point x="126" y="1091"/>
			<point x="493" y="1520"/>
			<point x="717" y="1520" type="qcurve" smooth="yes"/>
			<point x="938" y="1520"/>
			<point x="1154" y="1097"/>
			<point x="1095" y="754" type="qcurve" smooth="yes"/>
			<point x="1033" y="391"/>
			<point x="678" y="-30"/>
			<point x="449" y="-30" type="qcurve" smooth="yes"/>
			<point x="220" y="-30"/>
			<point x="4" y="399"/>
		</contour>
		<contour>
			<point x="255" y="772" type="qcurve" smooth="yes"/>
			<point x="226" y="600"/>
			<point x="337" y="398"/>
			<point x="500" y="398" type="qcurve" smooth="yes"/>
			<point x="646" y="398"/>
			<point x="880" y="574"/>
			<point x="909" y="746" type="qcurve" smooth="yes"/>
			<point x="936" y="902"/>
			<point x="826" y="1096"/>
			<point x="636" y="1096" type="qcurve" smooth="yes"/>
			<point x="497" y="1096"/>
			<point x="282" y="925"/>
		</contour>
	</outline>
</glyph>
<glyph name="three" format="2">
  <advance width="936"/>
  <unicode hex="0033"/>
  <outline>
    <contour>
      <point x="-114" y="285" type="qcurve" smooth="yes"/>
      <point x="-114" y="446"/>
      <point x="7" y="672"/>
      <point x="99" y="672" type="qcurve"/>
      <point x="113" y="664" type="line"/>
      <point x="112" y="657"/>
      <point x="111" y="647"/>
      <point x="111" y="635" type="qcurve" smooth="yes"/>
      <point x="111" y="513"/>
      <point x="214" y="391"/>
      <point x="338" y="391" type="qcurve" smooth="yes"/>
      <point x="464" y="391"/>
      <point x="663" y="458"/>
      <point x="663" y="511" type="qcurve" smooth="yes"/>
      <point x="663" y="555"/>
      <point x="501" y="600"/>
      <point x="308" y="618" type="qcurve" smooth="yes"/>
      <point x="234" y="625" type="line"/>
      <point x="282" y="1046" type="line"/>
      <point x="332" y="1050" type="line" smooth="yes"/>
      <point x="490" y="1063"/>
      <point x="709" y="1132"/>
      <point x="709" y="1185" type="qcurve" smooth="yes"/>
      <point x="709" y="1205"/>
      <point x="673" y="1231"/>
      <point x="640" y="1231" type="qcurve" smooth="yes"/>
      <point x="586" y="1231"/>
      <point x="451" y="1139"/>
      <point x="381" y="1051" type="qcurve"/>
      <point x="115" y="1316" type="line"/>
      <point x="192" y="1405"/>
      <point x="432" y="1532"/>
      <point x="584" y="1532" type="qcurve" smooth="yes"/>
      <point x="727" y="1532"/>
      <point x="897" y="1370"/>
      <point x="897" y="1229" type="qcurve" smooth="yes"/>
      <point x="897" y="1087"/>
      <point x="657" y="880"/>
      <point x="503" y="852" type="qcurve"/>
      <point x="502" y="846" type="line"/>
      <point x="635" y="830"/>
      <point x="851" y="648"/>
      <point x="851" y="478" type="qcurve" smooth="yes"/>
      <point x="851" y="255"/>
      <point x="458" y="-33"/>
      <point x="213" y="-33" type="qcurve" smooth="yes"/>
      <point x="61" y="-33"/>
      <point x="-114" y="138"/>
    </contour>
  </outline>
</glyph>
<glyph name="six" format="2">
  <advance width="1116"/>
  <unicode hex="0036"/>
  <outline>
    <contour>
      <point x="37" y="471" type="qcurve" smooth="yes"/>
      <point x="37" y="806"/>
      <point x="550" y="1408"/>
      <point x="971" y="1551" type="qcurve"/>
      <point x="1144" y="1169" type="line"/>
      <point x="824" y="1079"/>
      <point x="217" y="733"/>
      <point x="217" y="556" type="qcurve"/>
      <point x="217" y="458"/>
      <point x="314" y="387"/>
      <point x="517" y="387" type="qcurve" smooth="yes"/>
      <point x="679" y="387"/>
      <point x="828" y="422"/>
      <point x="828" y="453" type="qcurve" smooth="yes"/>
      <point x="828" y="468"/>
      <point x="711" y="482"/>
      <point x="608" y="482" type="qcurve" smooth="yes"/>
      <point x="555" y="482"/>
      <point x="510" y="479"/>
      <point x="470" y="477" type="qcurve"/>
      <point x="400" y="813" type="line"/>
      <point x="437" y="851"/>
      <point x="562" y="916"/>
      <point x="649" y="916" type="qcurve" smooth="yes"/>
      <point x="815" y="916"/>
      <point x="1017" y="708"/>
      <point x="1017" y="549" type="qcurve" smooth="yes"/>
      <point x="1017" y="323"/>
      <point x="710" y="-27"/>
      <point x="475" y="-27" type="qcurve" smooth="yes"/>
      <point x="249" y="-27"/>
      <point x="37" y="256"/>
    </contour>
  </outline>
</glyph>
<glyph name="eight" format="2">
	<unicode hex="0038"/>
	<advance width="1015"/>
	<outline>
		<contour>
			<point x="378" y="866" type="qcurve"/>
			<point x="606" y="682" type="line"/>
			<point x="412" y="589"/>
			<point x="262" y="478"/>
			<point x="262" y="399" type="qcurve" smooth="yes"/>
			<point x="262" y="341"/>
			<point x="352" y="265"/>
			<point x="481" y="265" type="qcurve" smooth="yes"/>
			<point x="586" y="265"/>
			<point x="747" y="341"/>
			<point x="747" y="427" type="qcurve" smooth="yes"/>
			<point x="747" y="533"/>
			<point x="562" y="676"/>
			<point x="487" y="729" type="qcurve" smooth="yes"/>
			<point x="412" y="782"/>
			<point x="210" y="975"/>
			<point x="210" y="1132" type="qcurve" smooth="yes"/>
			<point x="210" y="1287"/>
			<point x="485" y="1523"/>
			<point x="676" y="1523" type="qcurve" smooth="yes"/>
			<point x="824" y="1523"/>
			<point x="1003" y="1352"/>
			<point x="1003" y="1212" type="qcurve" smooth="yes"/>
			<point x="1003" y="1065"/>
			<point x="861" y="860"/>
			<point x="692" y="760" type="qcurve"/>
			<point x="465" y="928" type="line"/>
			<point x="587" y="988"/>
			<point x="686" y="1095"/>
			<point x="686" y="1155" type="qcurve" smooth="yes"/>
			<point x="686" y="1231"/>
			<point x="606" y="1305"/>
			<point x="539" y="1305" type="qcurve" smooth="yes"/>
			<point x="463" y="1305"/>
			<point x="365" y="1222"/>
			<point x="365" y="1173" type="qcurve" smooth="yes"/>
			<point x="365" y="1082"/>
			<point x="505" y="944"/>
			<point x="612" y="867" type="qcurve" smooth="yes"/>
			<point x="720" y="790"/>
			<point x="918" y="577"/>
			<point x="918" y="449" type="qcurve" smooth="yes"/>
			<point x="918" y="268"/>
			<point x="588" y="-29"/>
			<point x="371" y="-29" type="qcurve" smooth="yes"/>
			<point x="185" y="-29"/>
			<point x="-41" y="160"/>
			<point x="-41" y="318" type="qcurve" smooth="yes"/>
			<point x="-41" y="494"/>
			<point x="195" y="776"/>
		</contour>
	</outline>
</glyph>
<glyph name="greater" format="2">
	<unicode hex="003E"/>
	<advance width="1024"/>
	<outline>
		<contour>
			<point x="870" y="634" type="qcurve"/>
			<point x="809" y="597"/>
			<point x="307" y="277"/>
			<point x="235" y="230" type="qcurve" smooth="yes"/>
			<point x="132" y="162"/>
			<point x="-11" y="429"/>
			<point x="99" y="476" type="qcurve" smooth="yes"/>
			<point x="274" y="550"/>
			<point x="556" y="623"/>
			<point x="632" y="639" type="qcurve"/>
			<point x="573" y="661"/>
			<point x="326" y="770"/>
			<point x="198" y="849" type="qcurve" smooth="yes"/>
			<point x="110" y="903"/>
			<point x="297" y="1124"/>
			<point x="381" y="1058" type="qcurve" smooth="yes"/>
			<point x="443" y="1009"/>
			<point x="845" y="660"/>
		</contour>
	</outline>
</glyph>
<glyph name="cent" format="2">
  <advance width="974"/>
  <unicode hex="00A2"/>
  <outline>
    <contour>
      <point x="199" y="-100" type="line"/>
      <point x="245" y="162" type="line"/>
      <point x="262" y="162" type="line"/>
      <point x="345" y="630" type="line"/>
      <point x="661" y="588" type="line"/>
      <point x="586" y="162" type="line"/>
      <point x="605" y="162" type="line"/>
      <point x="568" y="-50" type="line"/>
    </contour>
    <contour>
      <point x="441" y="1280" type="line"/>
      <point x="808" y="1319" type="line"/>
      <point x="762" y="1059" type="line"/>
      <point x="744" y="1059" type="line"/>
      <point x="661" y="588" type="line"/>
      <point x="345" y="630" type="line"/>
      <point x="420" y="1059" type="line"/>
      <point x="402" y="1059" type="line"/>
    </contour>
    <contour>
      <point x="70" y="614" type="qcurve" smooth="yes"/>
      <point x="128" y="851"/>
      <point x="494" y="1141"/>
      <point x="652" y="1141" type="qcurve" smooth="yes"/>
      <point x="750" y="1141"/>
      <point x="907" y="1052"/>
      <point x="907" y="923" type="qcurve" smooth="yes"/>
      <point x="907" y="760"/>
      <point x="810" y="554"/>
      <point x="751" y="546" type="qcurve"/>
      <point x="743" y="555" type="line"/>
      <point x="743" y="750" type="line" smooth="yes"/>
      <point x="743" y="775"/>
      <point x="679" y="812"/>
      <point x="625" y="812" type="qcurve" smooth="yes"/>
      <point x="488" y="812"/>
      <point x="243" y="712"/>
      <point x="220" y="594" type="qcurve" smooth="yes"/>
      <point x="197" y="477"/>
      <point x="315" y="333"/>
      <point x="443" y="328" type="qcurve" smooth="yes"/>
      <point x="558" y="324"/>
      <point x="752" y="488"/>
      <point x="801" y="613" type="qcurve"/>
      <point x="859" y="549" type="line"/>
      <point x="859" y="330" type="line"/>
      <point x="795" y="244"/>
      <point x="529" y="84"/>
      <point x="362" y="91" type="qcurve" smooth="yes"/>
      <point x="190" y="98"/>
      <point x="14" y="385"/>
    </contour>
  </outline>
</glyph>
<glyph name="sterling" format="2">
	<unicode hex="00A3"/>
	<advance width="1097"/>
	<outline>
		<contour>
			<point x="201" y="506" type="line"/>
			<point x="249" y="819" type="line"/>
			<point x="953" y="819" type="line"/>
			<point x="901" y="506" type="line"/>
		</contour>
		<contour>
			<point x="676" y="523" type="qcurve" smooth="yes"/>
			<point x="676" y="336"/>
			<point x="369" y="-22"/>
			<point x="186" y="-22" type="qcurve" smooth="yes"/>
			<point x="59" y="-22"/>
			<point x="-85" y="98"/>
			<point x="-76" y="235" type="qcurve" smooth="yes"/>
			<point x="-67" y="372"/>
			<point x="103" y="490"/>
			<point x="212" y="490" type="qcurve" smooth="yes"/>
			<point x="299" y="490"/>
			<point x="458" y="431"/>
			<point x="532" y="396" type="qcurve" smooth="yes"/>
			<point x="608" y="360"/>
			<point x="738" y="296"/>
			<point x="798" y="296" type="qcurve" smooth="yes"/>
			<point x="868" y="296"/>
			<point x="961" y="356"/>
			<point x="1021" y="415" type="qcurve"/>
			<point x="1147" y="197" type="line"/>
			<point x="1096" y="114"/>
			<point x="891" y="-30"/>
			<point x="792" y="-30" type="qcurve" smooth="yes"/>
			<point x="712" y="-30"/>
			<point x="534" y="43"/>
			<point x="446" y="97" type="qcurve" smooth="yes"/>
			<point x="376" y="140"/>
			<point x="215" y="220"/>
			<point x="198" y="220" type="qcurve" smooth="yes"/>
			<point x="184" y="220"/>
			<point x="166" y="210"/>
			<point x="163" y="198" type="qcurve" smooth="yes"/>
			<point x="160" y="184"/>
			<point x="176" y="166"/>
			<point x="192" y="166" type="qcurve" smooth="yes"/>
			<point x="237" y="166"/>
			<point x="502" y="341"/>
			<point x="502" y="483" type="qcurve" smooth="yes"/>
			<point x="502" y="584"/>
			<point x="413" y="747"/>
			<point x="377" y="808" type="qcurve" smooth="yes"/>
			<point x="338" y="874"/>
			<point x="280" y="1035"/>
			<point x="291" y="1166" type="qcurve" smooth="yes"/>
			<point x="303" y="1304"/>
			<point x="528" y="1501"/>
			<point x="721" y="1501" type="qcurve" smooth="yes"/>
			<point x="860" y="1501"/>
			<point x="1065" y="1409"/>
			<point x="1132" y="1342" type="qcurve"/>
			<point x="906" y="1083" type="line"/>
			<point x="855" y="1127"/>
			<point x="722" y="1188"/>
			<point x="639" y="1188" type="qcurve" smooth="yes"/>
			<point x="560" y="1188"/>
			<point x="490" y="1147"/>
			<point x="482" y="1096" type="qcurve" smooth="yes"/>
			<point x="474" y="1047"/>
			<point x="509" y="960"/>
			<point x="551" y="888" type="qcurve" smooth="yes"/>
			<point x="599" y="806"/>
			<point x="676" y="633"/>
		</contour>
	</outline>
</glyph>
<glyph name="logicalnot" format="2">
	<unicode hex="00AC"/>
	<advance width="1024"/>
	<outline>
		<contour>
			<point x="85" y="808" type="line"/>
			<point x="949" y="808" type="line"/>
			<point x="949" y="200" type="line"/>
			<point x="639" y="200" type="line"/>
			<point x="639" y="456" type="line"/>
			<point x="85" y="456" type="line"/>
		</contour>
	</outline>
</glyph>
<glyph name="plusminus" format="2">
	<unicode hex="00B1"/>
	<advance width="1024"/>
	<outline>
		<contour>
			<point x="80" y="456" type="line"/>
			<point x="80" y="808" type="line"/>
			<point x="944" y="808" type="line"/>
			<point x="944" y="456" type="line"/>
		</contour>
		<contour>
			<point x="332" y="238" type="line"/>
			<point x="332" y="1064" type="line"/>
			<point x="692" y="1064" type="line"/>
			<point x="692" y="238" type="line"/>
		</contour>
		<contour>
			<point x="80" y="0" type="line"/>
			<point x="80" y="300" type="line"/>
			<point x="944" y="300" type="line"/>
			<point x="944" y="0" type="line"/>
		</contour>
	</outline>
</glyph>
<glyph name="twosuperior" format="2">
	<unicode hex="00B2"/>
	<advance width="784"/>
	<outline>
		<contour>
			<point x="112" y="661" type="qcurve"/>
			<point x="59" y="761" type="line"/>
			<point x="144" y="829" type="line"/>
			<point x="452" y="1052"/>
			<point x="600" y="1198"/>
			<point x="600" y="1241" type="qcurve" smooth="yes"/>
			<point x="600" y="1282"/>
			<point x="538" y="1316"/>
			<point x="483" y="1316" type="qcurve" smooth="yes"/>
			<point x="430" y="1316"/>
			<point x="355" y="1269"/>
			<point x="316" y="1231" type="qcurve"/>
			<point x="192" y="1386" type="line"/>
			<point x="265" y="1452"/>
			<point x="427" y="1532"/>
			<point x="538" y="1532" type="qcurve" smooth="yes"/>
			<point x="649" y="1532"/>
			<point x="773" y="1422"/>
			<point x="773" y="1330" type="qcurve" smooth="yes"/>
			<point x="773" y="1132"/>
			<point x="466" y="880"/>
			<point x="381" y="824" type="qcurve"/>
			<point x="385" y="819" type="line"/>
			<point x="469" y="823"/>
			<point x="599" y="812"/>
			<point x="690" y="786" type="qcurve"/>
			<point x="668" y="641" type="line"/>
			<point x="539" y="675"/>
			<point x="236" y="701"/>
		</contour>
	</outline>
</glyph>
<glyph name="threesuperior" format="2">
  <advance width="736"/>
  <unicode hex="00B3"/>
  <outline>
    <contour>
      <point x="36" y="786" type="qcurve" smooth="yes"/>
      <point x="36" y="862"/>
      <point x="116" y="960"/>
      <point x="175" y="983" type="qcurve"/>
      <point x="272" y="858" type="line"/>
      <point x="275" y="843" type="line"/>
      <point x="271" y="842"/>
      <point x="265" y="838"/>
      <point x="265" y="833" type="qcurve" smooth="yes"/>
      <point x="265" y="828"/>
      <point x="292" y="822"/>
      <point x="316" y="822" type="qcurve" smooth="yes"/>
      <point x="404" y="822"/>
      <point x="534" y="876"/>
      <point x="534" y="931" type="qcurve" smooth="yes"/>
      <point x="534" y="986"/>
      <point x="423" y="1030"/>
      <point x="322" y="1021" type="qcurve" smooth="yes"/>
      <point x="237" y="1013" type="line"/>
      <point x="255" y="1221" type="line"/>
      <point x="340" y="1230" type="line" smooth="yes"/>
      <point x="450" y="1242"/>
      <point x="568" y="1283"/>
      <point x="569" y="1305" type="qcurve" smooth="yes"/>
      <point x="570" y="1327"/>
      <point x="520" y="1339"/>
      <point x="470" y="1339" type="qcurve" smooth="yes"/>
      <point x="413" y="1339"/>
      <point x="302" y="1289"/>
      <point x="264" y="1253" type="qcurve"/>
      <point x="161" y="1377" type="line"/>
      <point x="248" y="1460"/>
      <point x="428" y="1532"/>
      <point x="513" y="1532" type="qcurve" smooth="yes"/>
      <point x="609" y="1532"/>
      <point x="730" y="1444"/>
      <point x="730" y="1368" type="qcurve" smooth="yes"/>
      <point x="730" y="1273"/>
      <point x="579" y="1175"/>
      <point x="467" y="1153" type="qcurve"/>
      <point x="466" y="1149" type="line"/>
      <point x="569" y="1134"/>
      <point x="696" y="1012"/>
      <point x="696" y="911" type="qcurve" smooth="yes"/>
      <point x="696" y="785"/>
      <point x="473" y="639"/>
      <point x="313" y="639" type="qcurve" smooth="yes"/>
      <point x="166" y="639"/>
      <point x="36" y="722"/>
    </contour>
  </outline>
</glyph>
<glyph name="onesuperior" format="2">
	<unicode hex="00B9"/>
	<advance width="570"/>
	<outline>
		<contour>
			<point x="219" y="722" type="line"/>
			<point x="254" y="756"/>
			<point x="297" y="882"/>
			<point x="315" y="983" type="qcurve" smooth="yes"/>
			<point x="357" y="1209" type="line"/>
			<point x="361" y="1225" type="line"/>
			<point x="126" y="1046" type="line"/>
			<point x="14" y="1221" type="line"/>
			<point x="495" y="1539" type="line"/>
			<point x="617" y="1465" type="line"/>
			<point x="590" y="1438"/>
			<point x="524" y="1338"/>
			<point x="508" y="1265" type="qcurve" smooth="yes"/>
			<point x="461" y="1047" type="line"/>
			<point x="430" y="775" type="line"/>
			<point x="417" y="647" type="line"/>
		</contour>
	</outline>
</glyph>
<glyph name="multiply" format="2">
	<unicode hex="00D7"/>
	<advance width="1164"/>
	<outline>
		<contour>
			<point x="397" y="206" type="line"/>
			<point x="156" y="447" type="line"/>
			<point x="767" y="1058" type="line"/>
			<point x="1008" y="817" type="line"/>
		</contour>
		<contour>
			<point x="762" y="201" type="line"/>
			<point x="151" y="812" type="line"/>
			<point x="402" y="1063" type="line"/>
			<point x="1013" y="452" type="line"/>
		</contour>
	</outline>
</glyph>
<glyph name="florin" format="2">
  <advance width="688"/>
  <unicode hex="0192"/>
  <outline>
    <contour>
      <point x="59" y="-309" type="qcurve" smooth="yes"/>
      <point x="26" y="-309"/>
      <point x="-50" y="-302"/>
      <point x="-79" y="-295" type="qcurve" smooth="yes"/>
      <point x="-100" y="-290" type="line"/>
      <point x="-40" y="28" type="line"/>
      <point x="-16" y="21" type="line" smooth="yes"/>
      <point x="-8" y="19"/>
      <point x="23" y="14"/>
      <point x="39" y="14" type="qcurve" smooth="yes"/>
      <point x="108" y="14"/>
      <point x="166" y="99"/>
      <point x="180" y="171" type="qcurve" smooth="yes"/>
      <point x="285" y="702" type="line"/>
      <point x="385" y="1304" type="line" smooth="yes"/>
      <point x="401" y="1403"/>
      <point x="518" y="1518"/>
      <point x="618" y="1518" type="qcurve" smooth="yes"/>
      <point x="651" y="1518"/>
      <point x="727" y="1510"/>
      <point x="756" y="1504" type="qcurve" smooth="yes"/>
      <point x="780" y="1499" type="line"/>
      <point x="732" y="1162" type="line"/>
      <point x="706" y="1169" type="line" smooth="yes"/>
      <point x="698" y="1171"/>
      <point x="665" y="1176"/>
      <point x="648" y="1176" type="qcurve" smooth="yes"/>
      <point x="575" y="1176"/>
      <point x="514" y="1112"/>
      <point x="499" y="1039" type="qcurve" smooth="yes"/>
      <point x="428" y="679" type="line"/>
      <point x="290" y="-75" type="line" smooth="yes"/>
      <point x="272" y="-173"/>
      <point x="159" y="-309"/>
    </contour>
    <contour>
      <point x="117" y="673" type="line"/>
      <point x="92" y="966" type="line"/>
      <point x="359" y="985" type="line"/>
      <point x="461" y="985" type="line"/>
      <point x="688" y="985" type="line"/>
      <point x="691" y="684" type="line"/>
      <point x="406" y="673" type="line"/>
      <point x="312" y="661" type="line"/>
    </contour>
  </outline>
</glyph>
<glyph name="fraction" format="2">
	<unicode hex="2044"/>
	<advance width="485"/>
	<outline>
		<contour>
			<point x="-425" y="167" type="line"/>
			<point x="619" y="1526" type="line"/>
			<point x="900" y="1319" type="line"/>
			<point x="-144" y="-40" type="line"/>
		</contour>
	</outline>
</glyph>
<glyph name="colonsign" format="2">
  <advance width="1312"/>
  <unicode hex="20A1"/>
  <outline>
    <contour>
      <point x="538" y="-132" type="line"/>
      <point x="622" y="245" type="line"/>
      <point x="633" y="240" type="line"/>
      <point x="767" y="813" type="line"/>
      <point x="1047" y="738" type="line"/>
      <point x="946" y="288" type="line"/>
      <point x="959" y="283" type="line"/>
      <point x="850" y="-222" type="line"/>
    </contour>
    <contour>
      <point x="933" y="1604" type="line"/>
      <point x="1249" y="1563" type="line"/>
      <point x="1156" y="1156" type="line"/>
      <point x="1144" y="1160" type="line"/>
      <point x="1047" y="738" type="line"/>
      <point x="767" y="813" type="line"/>
      <point x="883" y="1299" type="line"/>
      <point x="870" y="1304" type="line"/>
    </contour>
    <contour>
      <point x="199" y="-47" type="line"/>
      <point x="304" y="391" type="line"/>
      <point x="315" y="386" type="line"/>
      <point x="416" y="828" type="line"/>
      <point x="697" y="759" type="line"/>
      <point x="591" y="284" type="line"/>
      <point x="604" y="279" type="line"/>
      <point x="512" y="-131" type="line"/>
    </contour>
    <contour>
      <point x="582" y="1619" type="line"/>
      <point x="899" y="1584" type="line"/>
      <point x="834" y="1283" type="line"/>
      <point x="822" y="1287" type="line"/>
      <point x="697" y="759" type="line"/>
      <point x="416" y="828" type="line"/>
      <point x="502" y="1200" type="line"/>
      <point x="489" y="1205" type="line"/>
    </contour>
    <contour>
      <point x="156" y="875" type="qcurve" smooth="yes"/>
      <point x="232" y="1165"/>
      <point x="748" y="1477"/>
      <point x="977" y="1438" type="qcurve" smooth="yes"/>
      <point x="1149" y="1409"/>
      <point x="1334" y="1169"/>
      <point x="1253" y="721" type="qcurve"/>
      <point x="1125" y="721" type="line"/>
      <point x="1152" y="872"/>
      <point x="1045" y="1051"/>
      <point x="897" y="1074" type="qcurve" smooth="yes"/>
      <point x="711" y="1103"/>
      <point x="372" y="1001"/>
      <point x="339" y="864" type="qcurve" smooth="yes"/>
      <point x="306" y="727"/>
      <point x="460" y="495"/>
      <point x="656" y="465" type="qcurve"/>
      <point x="847" y="436"/>
      <point x="1052" y="551"/>
      <point x="1117" y="678" type="qcurve"/>
      <point x="1141" y="665" type="line"/>
      <point x="1242" y="348" type="line"/>
      <point x="1118" y="170"/>
      <point x="782" y="46"/>
      <point x="580" y="70" type="qcurve" smooth="yes"/>
      <point x="312" y="102"/>
      <point x="75" y="565"/>
    </contour>
  </outline>
</glyph>
<glyph name="franc" format="2">
  <advance width="1060"/>
  <unicode hex="20A3"/>
  <outline>
    <contour>
      <point x="11" y="237" type="line"/>
      <point x="71" y="553" type="line"/>
      <point x="815" y="553" type="line"/>
      <point x="755" y="237" type="line"/>
    </contour>
    <contour>
      <point x="-16" y="0" type="line"/>
      <point x="3" y="100" type="line"/>
      <point x="190" y="127" type="line"/>
      <point x="313" y="760" type="line"/>
      <point x="426" y="1362" type="line"/>
      <point x="243" y="1386" type="line"/>
      <point x="256" y="1500" type="line"/>
      <point x="1166" y="1500" type="line"/>
      <point x="1051" y="924" type="line"/>
      <point x="951" y="924" type="line"/>
      <point x="964" y="1132" type="line"/>
      <point x="580" y="1142" type="line"/>
      <point x="544" y="1122" type="line"/>
      <point x="473" y="760" type="line"/>
      <point x="353" y="122" type="line"/>
      <point x="553" y="100" type="line"/>
      <point x="534" y="0" type="line"/>
    </contour>
    <contour>
      <point x="378" y="679" type="line"/>
      <point x="437" y="981" type="line"/>
      <point x="828" y="988" type="line"/>
      <point x="885" y="1151" type="line"/>
      <point x="985" y="1151" type="line"/>
      <point x="854" y="485" type="line"/>
      <point x="754" y="485" type="line"/>
      <point x="765" y="672" type="line"/>
    </contour>
  </outline>
</glyph>
<glyph name="lira" format="2">
	<unicode hex="20A4"/>
	<advance width="1150"/>
	<outline>
		<contour>
			<point x="205.6049382716" y="-37" type="qcurve" smooth="yes"/>
			<point x="63.6049382716" y="-37"/>
			<point x="-84.3950617284" y="127"/>
			<point x="-77.3950617284" y="252" type="qcurve" smooth="yes"/>
			<point x="-69.3950617284" y="393"/>
			<point x="112.6049382716" y="542"/>
			<point x="234.6049382716" y="542" type="qcurve" smooth="yes"/>
			<point x="331.6049382716" y="542"/>
			<point x="524.6049382716" y="464"/>
			<point x="604.6049382716" y="392" type="qcurve" smooth="yes"/>
			<point x="644.6049382716" y="356"/>
			<point x="733.6049382716" y="297"/>
			<point x="793.6049382716" y="297" type="qcurve" smooth="yes"/>
			<point x="863.6049382716" y="297"/>
			<point x="978" y="343"/>
			<point x="1042" y="394" type="qcurve"/>
			<point x="1189.6049382716" y="160" type="line"/>
			<point x="1146.6049382716" y="102"/>
			<point x="958.6049382716" y="-20"/>
			<point x="869.6049382716" y="-20" type="qcurve" smooth="yes"/>
			<point x="709.6049382716" y="-20"/>
			<point x="530.6049382716" y="99"/>
			<point x="453.6049382716" y="167" type="qcurve"/>
			<point x="408.6049382716" y="202"/>
			<point x="327.6049382716" y="230"/>
			<point x="301.6049382716" y="230" type="qcurve" smooth="yes"/>
			<point x="279.6049382716" y="230"/>
			<point x="253.6049382716" y="216"/>
			<point x="249.6049382716" y="199" type="qcurve" smooth="yes"/>
			<point x="245.6049382716" y="177"/>
			<point x="268.6049382716" y="171"/>
			<point x="291.6049382716" y="171" type="qcurve" smooth="yes"/>
			<point x="358.6049382716" y="171"/>
			<point x="559.6049382716" y="341"/>
			<point x="559.6049382716" y="483" type="qcurve" smooth="yes"/>
			<point x="559.6049382716" y="584"/>
			<point x="507.6049382716" y="751"/>
			<point x="464.6049382716" y="808" type="qcurve" smooth="yes"/>
			<point x="415.6049382716" y="874"/>
			<point x="347.6049382716" y="1035"/>
			<point x="358.6049382716" y="1166" type="qcurve" smooth="yes"/>
			<point x="370.6049382716" y="1304"/>
			<point x="595.6049382716" y="1501"/>
			<point x="788.6049382716" y="1501" type="qcurve" smooth="yes"/>
			<point x="927.6049382716" y="1501"/>
			<point x="1140.6049382716" y="1403"/>
			<point x="1199.6049382716" y="1342" type="qcurve"/>
			<point x="977.6049382716" y="1085" type="line"/>
			<point x="938.6049382716" y="1118"/>
			<point x="843.6049382716" y="1153"/>
			<point x="747.6049382716" y="1154" type="qcurve" smooth="yes"/>
			<point x="642.6049382716" y="1154"/>
			<point x="527.6049382716" y="1129"/>
			<point x="524.6049382716" y="1103" type="qcurve" smooth="yes"/>
			<point x="520.6049382716" y="1065"/>
			<point x="577.6049382716" y="947"/>
			<point x="628.6049382716" y="875" type="qcurve" smooth="yes"/>
			<point x="682.6049382716" y="798"/>
			<point x="753.6049382716" y="633"/>
			<point x="753.6049382716" y="523" type="qcurve" smooth="yes"/>
			<point x="753.6049382716" y="306"/>
			<point x="459.6049382716" y="-37"/>
		</contour>
		<contour>
			<point x="176" y="499" type="line"/>
			<point x="212" y="759" type="line"/>
			<point x="1026" y="759" type="line"/>
			<point x="986" y="499" type="line"/>
		</contour>
		<contour>
			<point x="212" y="772" type="line"/>
			<point x="248" y="1032" type="line"/>
			<point x="1062" y="1032" type="line"/>
			<point x="1022" y="772" type="line"/>
		</contour>
	</outline>
</glyph>
<glyph name="naira" format="2">
  <advance width="2035"/>
  <unicode hex="20A6"/>
  <outline>
    <contour>
      <point x="1931" y="535" type="line"/>
      <point x="1538" y="535" type="line"/>
      <point x="1543" y="561" type="line"/>
      <point x="1163" y="561" type="line"/>
      <point x="1130" y="664" type="line"/>
      <point x="1561" y="664" type="line"/>
      <point x="1565" y="682" type="line"/>
      <point x="1971" y="682" type="line"/>
    </contour>
    <contour>
      <point x="124" y="536" type="line"/>
      <point x="145" y="682" type="line"/>
      <point x="519" y="682" type="line"/>
      <point x="515" y="664" type="line"/>
      <point x="1130" y="664" type="line"/>
      <point x="1166" y="552" type="line"/>
      <point x="494" y="552" type="line"/>
      <point x="491" y="536" type="line"/>
    </contour>
    <contour>
      <point x="1981" y="886" type="line"/>
      <point x="1602" y="886" type="line"/>
      <point x="1605" y="900" type="line"/>
      <point x="1054" y="900" type="line"/>
      <point x="1008" y="1018" type="line"/>
      <point x="1626" y="1018" type="line"/>
      <point x="1629" y="1034" type="line"/>
      <point x="2021" y="1034" type="line"/>
    </contour>
    <contour>
      <point x="184" y="886" type="line"/>
      <point x="205" y="1034" type="line"/>
      <point x="585" y="1034" type="line"/>
      <point x="580" y="1012" type="line"/>
      <point x="1010" y="1012" type="line"/>
      <point x="1054" y="900" type="line"/>
      <point x="560" y="900" type="line"/>
      <point x="557" y="886" type="line"/>
    </contour>
    <contour>
      <point x="20" y="0" type="line"/>
      <point x="29" y="100" type="line"/>
      <point x="225" y="125" type="line"/>
      <point x="348" y="754" type="line"/>
      <point x="462" y="1362" type="line"/>
      <point x="279" y="1386" type="line"/>
      <point x="292" y="1500" type="line"/>
      <point x="917" y="1500" type="line"/>
      <point x="1142" y="820" type="line"/>
      <point x="1306" y="276" type="line"/>
      <point x="1400" y="754" type="line"/>
      <point x="1515" y="1362" type="line"/>
      <point x="1314" y="1386" type="line"/>
      <point x="1330" y="1500" type="line"/>
      <point x="2094" y="1500" type="line"/>
      <point x="2078" y="1386" type="line"/>
      <point x="1884" y="1362" type="line"/>
      <point x="1766" y="754" type="line"/>
      <point x="1615" y="0" type="line"/>
      <point x="1244" y="0" type="line"/>
      <point x="1012" y="748" type="line"/>
      <point x="820" y="1328" type="line"/>
      <point x="710" y="754" type="line"/>
      <point x="591" y="125" type="line"/>
      <point x="782" y="100" type="line"/>
      <point x="773" y="0" type="line"/>
    </contour>
  </outline>
</glyph>
<glyph name="peseta" format="2">
  <advance width="2183"/>
  <unicode hex="20A7"/>
  <outline>
    <contour>
      <point x="-61" y="0" type="line"/>
      <point x="-52" y="100" type="line"/>
      <point x="135" y="127" type="line"/>
      <point x="256" y="754" type="line"/>
      <point x="362" y="1362" type="line"/>
      <point x="199" y="1386" type="line"/>
      <point x="212" y="1500" type="line"/>
      <point x="694" y="1500" type="line" smooth="yes"/>
      <point x="941" y="1500"/>
      <point x="1146" y="1209"/>
      <point x="1083" y="946" type="qcurve" smooth="yes"/>
      <point x="1028" y="715"/>
      <point x="746" y="523"/>
      <point x="567" y="523" type="qcurve" smooth="yes"/>
      <point x="468" y="523"/>
      <point x="335" y="542"/>
      <point x="293" y="550" type="qcurve"/>
      <point x="362" y="904" type="line"/>
      <point x="413" y="891"/>
      <point x="507" y="882"/>
      <point x="600" y="882" type="qcurve" smooth="yes"/>
      <point x="735" y="882"/>
      <point x="918" y="895"/>
      <point x="928" y="1015" type="qcurve" smooth="yes"/>
      <point x="938" y="1132"/>
      <point x="777" y="1187"/>
      <point x="633" y="1187" type="qcurve" smooth="yes"/>
      <point x="518" y="1187" type="line"/>
      <point x="492" y="1165" type="line"/>
      <point x="418" y="764" type="line"/>
      <point x="298" y="122" type="line"/>
      <point x="488" y="100" type="line"/>
      <point x="479" y="0" type="line"/>
    </contour>
    <contour>
      <point x="1091" y="-15" type="line"/>
      <point x="1017" y="117" type="line"/>
      <point x="1077" y="359" type="line"/>
      <point x="1122" y="580" type="line"/>
      <point x="961" y="622" type="line"/>
      <point x="1041" y="937" type="line"/>
      <point x="1152" y="942"/>
      <point x="1271" y="1029"/>
      <point x="1324" y="1237" type="qcurve"/>
      <point x="1381" y="1237" type="line"/>
      <point x="1407" y="1197" type="line"/>
      <point x="1272" y="567" type="line"/>
      <point x="1200" y="134" type="line"/>
      <point x="1406" y="159" type="line"/>
      <point x="1406" y="71" type="line"/>
    </contour>
    <contour>
      <point x="1198" y="599" type="line"/>
      <point x="1297" y="992" type="line"/>
      <point x="1580" y="992" type="line"/>
      <point x="1496" y="625" type="line"/>
    </contour>
    <contour>
      <point x="1426" y="198" type="qcurve" smooth="yes"/>
      <point x="1428" y="316"/>
      <point x="1515" y="437"/>
      <point x="1570" y="437" type="qcurve" smooth="yes"/>
      <point x="1595" y="437" type="line"/>
      <point x="1588" y="254" type="line" smooth="yes"/>
      <point x="1587" y="227"/>
      <point x="1652" y="207"/>
      <point x="1730" y="207" type="qcurve" smooth="yes"/>
      <point x="1823" y="207"/>
      <point x="1920" y="230"/>
      <point x="1921" y="259" type="qcurve" smooth="yes"/>
      <point x="1923" y="315"/>
      <point x="1853" y="424"/>
      <point x="1767" y="473" type="qcurve" smooth="yes"/>
      <point x="1654" y="536"/>
      <point x="1541" y="664"/>
      <point x="1545" y="751" type="qcurve" smooth="yes"/>
      <point x="1550" y="855"/>
      <point x="1754" y="1011"/>
      <point x="1910" y="1011" type="qcurve" smooth="yes"/>
      <point x="2035" y="1011"/>
      <point x="2154" y="878"/>
      <point x="2144" y="745" type="qcurve" smooth="yes"/>
      <point x="2139" y="682"/>
      <point x="2076" y="572"/>
      <point x="2009" y="572" type="qcurve" smooth="yes"/>
      <point x="1983" y="572" type="line"/>
      <point x="1989" y="726" type="line" smooth="yes"/>
      <point x="1990" y="748"/>
      <point x="1926" y="755"/>
      <point x="1869" y="755" type="qcurve" smooth="yes"/>
      <point x="1797" y="755"/>
      <point x="1758" y="743"/>
      <point x="1758" y="708" type="qcurve" smooth="yes"/>
      <point x="1758" y="682"/>
      <point x="1774" y="651"/>
      <point x="1869" y="595" type="qcurve" smooth="yes"/>
      <point x="1960" y="540"/>
      <point x="2109" y="394"/>
      <point x="2106" y="282" type="qcurve" smooth="yes"/>
      <point x="2101" y="148"/>
      <point x="1876" y="-25"/>
      <point x="1710" y="-25" type="qcurve" smooth="yes"/>
      <point x="1556" y="-25"/>
      <point x="1425" y="116"/>
    </contour>
  </outline>
</glyph>
<glyph name="won" format="2">
  <advance width="2008"/>
  <unicode hex="20A9"/>
  <outline>
    <contour>
      <point x="1790" y="475" type="line"/>
      <point x="1434" y="475" type="line"/>
      <point x="1434" y="551" type="line"/>
      <point x="1156" y="551" type="line"/>
      <point x="1156" y="673" type="line"/>
      <point x="1561" y="673" type="line"/>
      <point x="1561" y="742" type="line"/>
      <point x="1893" y="742" type="line"/>
    </contour>
    <contour>
      <point x="1953" y="836" type="line"/>
      <point x="1631" y="836" type="line"/>
      <point x="1631" y="908" type="line"/>
      <point x="1151" y="908" type="line"/>
      <point x="1151" y="1025" type="line"/>
      <point x="1691" y="1025" type="line"/>
      <point x="1691" y="1094" type="line"/>
      <point x="2061" y="1094" type="line"/>
    </contour>
    <contour>
      <point x="220" y="475" type="line"/>
      <point x="188" y="742" type="line"/>
      <point x="479" y="742" type="line"/>
      <point x="481" y="673" type="line"/>
      <point x="1156" y="673" type="line"/>
      <point x="1156" y="551" type="line"/>
      <point x="489" y="551" type="line"/>
      <point x="490" y="475" type="line"/>
    </contour>
    <contour>
      <point x="158" y="836" type="line"/>
      <point x="120" y="1094" type="line"/>
      <point x="468" y="1094" type="line"/>
      <point x="468" y="1025" type="line"/>
      <point x="1151" y="1025" type="line"/>
      <point x="1151" y="908" type="line"/>
      <point x="474" y="908" type="line"/>
      <point x="474" y="836" type="line"/>
    </contour>
    <contour>
      <point x="212" y="1386" type="line"/>
      <point x="236" y="1500" type="line"/>
      <point x="725" y="1500" type="line"/>
      <point x="701" y="1386" type="line"/>
      <point x="543" y="1366" type="line"/>
      <point x="553" y="803" type="line"/>
      <point x="564" y="518" type="line"/>
      <point x="610" y="518" type="line"/>
      <point x="750" y="747" type="line"/>
      <point x="1146" y="1382" type="line"/>
      <point x="1149" y="953" type="line"/>
      <point x="953" y="599" type="line"/>
      <point x="589" y="-8" type="line"/>
      <point x="425" y="-8" type="line"/>
      <point x="401" y="740" type="line"/>
      <point x="375" y="1366" type="line"/>
    </contour>
    <contour>
      <point x="914" y="1394" type="line"/>
      <point x="935" y="1500" type="line"/>
      <point x="1400" y="1500" type="line"/>
      <point x="1379" y="1386" type="line"/>
      <point x="1226" y="1373" type="line"/>
      <point x="1219" y="800" type="line"/>
      <point x="1221" y="517" type="line"/>
      <point x="1265" y="519" type="line"/>
      <point x="1407" y="803" type="line"/>
      <point x="1710" y="1372" type="line"/>
      <point x="1517" y="1386" type="line"/>
      <point x="1530" y="1500" type="line"/>
      <point x="2157" y="1500" type="line"/>
      <point x="2144" y="1386" type="line"/>
      <point x="1986" y="1367" type="line"/>
      <point x="1664" y="760" type="line"/>
      <point x="1235" y="-8" type="line"/>
      <point x="1074" y="-8" type="line"/>
      <point x="1068" y="734" type="line"/>
      <point x="1056" y="1373" type="line"/>
    </contour>
  </outline>
</glyph>
<glyph name="dong" format="2">
  <advance width="1095"/>
  <unicode hex="20AB"/>
  <outline>
    <contour>
      <point x="-6" y="-366" type="line"/>
      <point x="29" y="-78" type="line"/>
      <point x="450" y="-82" type="line"/>
      <point x="901" y="-78" type="line"/>
      <point x="866" y="-366" type="line"/>
      <point x="416" y="-362" type="line"/>
    </contour>
    <contour>
      <point x="473" y="1022" type="line"/>
      <point x="534" y="1267" type="line"/>
      <point x="951" y="1264" type="line"/>
      <point x="1167" y="1267" type="line"/>
      <point x="1107" y="1022" type="line"/>
      <point x="890" y="1026" type="line"/>
    </contour>
    <contour>
      <point x="54" y="248" type="qcurve" smooth="yes"/>
      <point x="54" y="548"/>
      <point x="497" y="987"/>
      <point x="780" y="987" type="qcurve" smooth="yes"/>
      <point x="812" y="987" type="line"/>
      <point x="874" y="1336" type="line"/>
      <point x="770" y="1428" type="line"/>
      <point x="798" y="1500" type="line"/>
      <point x="979" y="1534" type="line"/>
      <point x="1066" y="1464" type="line"/>
      <point x="872" y="469" type="line"/>
      <point x="823" y="133" type="line"/>
      <point x="908" y="133" type="line"/>
      <point x="908" y="44" type="line"/>
      <point x="681" y="-16" type="line"/>
      <point x="644" y="65" type="line"/>
      <point x="651" y="171" type="line"/>
      <point x="586" y="96"/>
      <point x="346" y="-10"/>
      <point x="275" y="-10" type="qcurve" smooth="yes"/>
      <point x="158" y="-10"/>
      <point x="54" y="139"/>
    </contour>
    <contour>
      <point x="223" y="434" type="qcurve" smooth="yes"/>
      <point x="215" y="380"/>
      <point x="272" y="328"/>
      <point x="341" y="328" type="qcurve" smooth="yes"/>
      <point x="459" y="328"/>
      <point x="723" y="462"/>
      <point x="733" y="521" type="qcurve" smooth="yes"/>
      <point x="737" y="546" type="line"/>
      <point x="734" y="586"/>
      <point x="662" y="612"/>
      <point x="621" y="612" type="qcurve" smooth="yes"/>
      <point x="422" y="612"/>
      <point x="231" y="488"/>
    </contour>
  </outline>
</glyph>
<glyph name="Euro" format="2">
	<unicode hex="20AC"/>
	<advance width="1099"/>
	<outline>
		<contour>
			<point x="95" y="778" type="line"/>
			<point x="162" y="1064" type="line"/>
			<point x="982" y="1064" type="line"/>
			<point x="919" y="778" type="line"/>
		</contour>
		<contour>
			<point x="58" y="461" type="line"/>
			<point x="120" y="747" type="line"/>
			<point x="974" y="747" type="line"/>
			<point x="908" y="461" type="line"/>
		</contour>
		<contour>
			<point x="910" y="1109" type="line"/>
			<point x="888" y="1165"/>
			<point x="812" y="1218"/>
			<point x="752" y="1218" type="qcurve" smooth="yes"/>
			<point x="631" y="1218"/>
			<point x="461" y="984"/>
			<point x="422" y="755" type="qcurve"/>
			<point x="386" y="565"/>
			<point x="475" y="317"/>
			<point x="582" y="317" type="qcurve" smooth="yes"/>
			<point x="641" y="317"/>
			<point x="731" y="359"/>
			<point x="786" y="411" type="qcurve"/>
			<point x="1000" y="171" type="line"/>
			<point x="919" y="81"/>
			<point x="724" y="-25"/>
			<point x="619" y="-25" type="qcurve" smooth="yes"/>
			<point x="387" y="-25"/>
			<point x="180" y="399"/>
			<point x="249" y="766" type="qcurve" smooth="yes"/>
			<point x="317" y="1128"/>
			<point x="663" y="1520"/>
			<point x="887" y="1520" type="qcurve" smooth="yes"/>
			<point x="1004" y="1520"/>
			<point x="1152" y="1386"/>
			<point x="1183" y="1278" type="qcurve"/>
		</contour>
	</outline>
</glyph>
<glyph name="kip" format="2">
  <advance width="1451"/>
  <unicode hex="20AD"/>
  <outline>
    <contour>
      <point x="1192" y="635" type="line"/>
      <point x="723" y="635" type="line"/>
      <point x="623" y="781" type="line"/>
      <point x="504" y="781" type="line"/>
      <point x="573" y="843" type="line"/>
      <point x="553" y="843" type="line"/>
      <point x="715" y="992" type="line"/>
      <point x="1255" y="992" type="line"/>
    </contour>
    <contour>
      <point x="115" y="635" type="line"/>
      <point x="146" y="991" type="line"/>
      <point x="444" y="991" type="line"/>
      <point x="417" y="843" type="line"/>
      <point x="573" y="843" type="line"/>
      <point x="504" y="781" type="line"/>
      <point x="402" y="781" type="line"/>
      <point x="377" y="635" type="line"/>
    </contour>
    <contour>
      <point x="-16" y="0" type="line"/>
      <point x="-7" y="100" type="line"/>
      <point x="189" y="125" type="line"/>
      <point x="312" y="754" type="line"/>
      <point x="426" y="1362" type="line"/>
      <point x="233" y="1386" type="line"/>
      <point x="246" y="1500" type="line"/>
      <point x="788" y="1500" type="line"/>
      <point x="775" y="1386" type="line"/>
      <point x="593" y="1362" type="line"/>
      <point x="472" y="754" type="line"/>
      <point x="361" y="125" type="line"/>
      <point x="545" y="100" type="line"/>
      <point x="536" y="0" type="line"/>
    </contour>
    <contour>
      <point x="351" y="473" type="line"/>
      <point x="422" y="899" type="line"/>
      <point x="885" y="1348" type="line"/>
      <point x="781" y="1386" type="line"/>
      <point x="794" y="1500" type="line"/>
      <point x="1464" y="1500" type="line"/>
      <point x="1451" y="1386" type="line"/>
      <point x="1290" y="1348" type="line"/>
    </contour>
    <contour>
      <point x="512" y="803" type="line"/>
      <point x="638" y="916" type="line"/>
      <point x="1137" y="125" type="line"/>
      <point x="1271" y="100" type="line"/>
      <point x="1262" y="0" type="line"/>
      <point x="793" y="0" type="line"/>
      <point x="802" y="100" type="line"/>
      <point x="943" y="125" type="line"/>
    </contour>
  </outline>
</glyph>
<glyph name="peso" format="2">
  <advance width="1376"/>
  <unicode hex="20B1"/>
  <outline>
    <contour>
      <point x="1302" y="691" type="line"/>
      <point x="971" y="691" type="line"/>
      <point x="971" y="705" type="line"/>
      <point x="688" y="705" type="line"/>
      <point x="733" y="969" type="line"/>
      <point x="1099" y="969" type="line"/>
      <point x="1099" y="984" type="line"/>
      <point x="1360" y="984" type="line"/>
    </contour>
    <contour>
      <point x="77" y="692" type="line"/>
      <point x="116" y="983" type="line"/>
      <point x="400" y="983" type="line"/>
      <point x="398" y="969" type="line"/>
      <point x="733" y="969" type="line"/>
      <point x="688" y="706" type="line"/>
      <point x="364" y="706" type="line"/>
      <point x="362" y="692" type="line"/>
    </contour>
    <contour>
      <point x="1356" y="998" type="line"/>
      <point x="1114" y="998" type="line"/>
      <point x="1114" y="1013" type="line"/>
      <point x="758" y="1013" type="line"/>
      <point x="795" y="1275" type="line"/>
      <point x="1079" y="1275" type="line"/>
      <point x="1079" y="1291" type="line"/>
      <point x="1401" y="1291" type="line"/>
    </contour>
    <contour>
      <point x="106" y="998" type="line"/>
      <point x="142" y="1291" type="line"/>
      <point x="446" y="1291" type="line"/>
      <point x="444" y="1275" type="line"/>
      <point x="795" y="1275" type="line"/>
      <point x="758" y="1013" type="line"/>
      <point x="412" y="1013" type="line"/>
      <point x="410" y="998" type="line"/>
    </contour>
    <contour>
      <point x="-41" y="0" type="line"/>
      <point x="-32" y="100" type="line"/>
      <point x="165" y="127" type="line"/>
      <point x="287" y="754" type="line"/>
      <point x="392" y="1362" type="line"/>
      <point x="209" y="1386" type="line"/>
      <point x="222" y="1500" type="line"/>
      <point x="794" y="1500" type="line" smooth="yes"/>
      <point x="1011" y="1500"/>
      <point x="1237" y="1215"/>
      <point x="1196" y="1003" type="qcurve" smooth="yes"/>
      <point x="1149" y="760"/>
      <point x="838" y="479"/>
      <point x="639" y="479" type="qcurve" smooth="yes"/>
      <point x="540" y="479"/>
      <point x="392" y="500"/>
      <point x="333" y="512" type="qcurve"/>
      <point x="405" y="896" type="line"/>
      <point x="473" y="879"/>
      <point x="575" y="870"/>
      <point x="668" y="870" type="qcurve" smooth="yes"/>
      <point x="806" y="870"/>
      <point x="1022" y="941"/>
      <point x="1031" y="1009" type="qcurve" smooth="yes"/>
      <point x="1040" y="1073"/>
      <point x="867" y="1123"/>
      <point x="722" y="1123" type="qcurve" smooth="yes"/>
      <point x="537" y="1123" type="line"/>
      <point x="511" y="1101" type="line"/>
      <point x="449" y="764" type="line"/>
      <point x="328" y="122" type="line"/>
      <point x="528" y="100" type="line"/>
      <point x="519" y="0" type="line"/>
    </contour>
  </outline>
</glyph>
<glyph name="guarani" format="2">
	<unicode hex="20B2"/>
	<advance width="1376"/>
	<outline>
		<contour>
			<point x="320" y="-132" type="line"/>
			<point x="421" y="243" type="line"/>
			<point x="439" y="238" type="line"/>
			<point x="597" y="842" type="line"/>
			<point x="911" y="803" type="line"/>
			<point x="718" y="54" type="line"/>
			<point x="738" y="50" type="line"/>
			<point x="695" y="-109" type="line"/>
		</contour>
		<contour>
			<point x="781" y="1646" type="line"/>
			<point x="1152" y="1646" type="line"/>
			<point x="1092" y="1424" type="line"/>
			<point x="1071" y="1428" type="line"/>
			<point x="911" y="803" type="line"/>
			<point x="597" y="842" type="line"/>
			<point x="737" y="1393" type="line"/>
			<point x="717" y="1398" type="line"/>
		</contour>
		<contour>
			<point x="147" y="839" type="qcurve" smooth="yes"/>
			<point x="234" y="1165"/>
			<point x="712" y="1542"/>
			<point x="989" y="1504" type="qcurve" smooth="yes"/>
			<point x="1159" y="1481"/>
			<point x="1367" y="1243"/>
			<point x="1287" y="820" type="qcurve"/>
			<point x="1159" y="820" type="line"/>
			<point x="1192" y="1029"/>
			<point x="1021" y="1186"/>
			<point x="871" y="1212" type="qcurve" smooth="yes"/>
			<point x="651" y="1250"/>
			<point x="391" y="1048"/>
			<point x="334" y="842" type="qcurve" smooth="yes"/>
			<point x="277" y="636"/>
			<point x="439" y="371"/>
			<point x="613" y="347" type="qcurve" smooth="yes"/>
			<point x="747" y="329"/>
			<point x="966" y="370"/>
			<point x="1066" y="439" type="qcurve"/>
			<point x="1100" y="606" type="line"/>
			<point x="951" y="631" type="line"/>
			<point x="973" y="732" type="line"/>
			<point x="1276" y="732" type="line"/>
			<point x="1179" y="182" type="line"/>
			<point x="1134" y="152" type="line"/>
			<point x="1014" y="92"/>
			<point x="671" y="-7"/>
			<point x="525" y="14" type="qcurve" smooth="yes"/>
			<point x="278" y="49"/>
			<point x="62" y="523"/>
		</contour>
	</outline>
</glyph>
<glyph name="hryvnia" format="2">
  <advance width="1176"/>
  <unicode hex="20B4"/>
  <outline>
    <contour>
      <point x="79" y="747" type="line"/>
      <point x="1114" y="747" type="line"/>
      <point x="1037" y="441" type="line"/>
      <point x="6" y="441" type="line"/>
    </contour>
    <contour>
      <point x="134" y="1090" type="line"/>
      <point x="1177" y="1090" type="line"/>
      <point x="1110" y="764" type="line"/>
      <point x="64" y="764" type="line"/>
    </contour>
    <contour>
      <point x="999" y="272" type="line"/>
      <point x="906" y="141"/>
      <point x="637" y="1"/>
      <point x="465" y="1" type="qcurve" smooth="yes"/>
      <point x="263" y="1"/>
      <point x="57" y="184"/>
      <point x="57" y="322" type="qcurve" smooth="yes"/>
      <point x="57" y="382"/>
      <point x="97" y="505"/>
      <point x="185" y="610" type="qcurve"/>
      <point x="217" y="642" type="line"/>
      <point x="263" y="691"/>
      <point x="421" y="785"/>
      <point x="531" y="828" type="qcurve" smooth="yes"/>
      <point x="651" y="875"/>
      <point x="764" y="925"/>
      <point x="820" y="947" type="qcurve"/>
      <point x="838" y="969" type="line"/>
      <point x="892" y="1014"/>
      <point x="944" y="1123"/>
      <point x="944" y="1142" type="qcurve" smooth="yes"/>
      <point x="944" y="1163"/>
      <point x="895" y="1177"/>
      <point x="831" y="1177" type="qcurve" smooth="yes"/>
      <point x="697" y="1177"/>
      <point x="543" y="1134"/>
      <point x="478" y="1097" type="qcurve"/>
      <point x="334" y="1373" type="line"/>
      <point x="423" y="1434"/>
      <point x="622" y="1501"/>
      <point x="740" y="1501" type="qcurve" smooth="yes"/>
      <point x="938" y="1501"/>
      <point x="1113" y="1329"/>
      <point x="1113" y="1206" type="qcurve" smooth="yes"/>
      <point x="1113" y="1130"/>
      <point x="1064" y="1011"/>
      <point x="1022" y="958" type="qcurve"/>
      <point x="990" y="926" type="line"/>
      <point x="933" y="873"/>
      <point x="775" y="760"/>
      <point x="660" y="718" type="qcurve" smooth="yes"/>
      <point x="544" y="675"/>
      <point x="396" y="600"/>
      <point x="334" y="569" type="qcurve"/>
      <point x="314" y="547" type="line"/>
      <point x="275" y="497"/>
      <point x="241" y="413"/>
      <point x="241" y="388" type="qcurve" smooth="yes"/>
      <point x="241" y="356"/>
      <point x="302" y="332"/>
      <point x="390" y="332" type="qcurve" smooth="yes"/>
      <point x="515" y="332"/>
      <point x="671" y="420"/>
      <point x="728" y="478" type="qcurve"/>
    </contour>
  </outline>
</glyph>
<glyph name="cedi" format="2">
  <advance width="1362"/>
  <unicode hex="20B5"/>
  <outline>
    <contour>
      <point x="126" y="875" type="qcurve" smooth="yes"/>
      <point x="206" y="1179"/>
      <point x="703" y="1482"/>
      <point x="947" y="1438" type="qcurve" smooth="yes"/>
      <point x="1119" y="1407"/>
      <point x="1304" y="1169"/>
      <point x="1217" y="755" type="qcurve"/>
      <point x="1089" y="755" type="line"/>
      <point x="1109" y="895"/>
      <point x="1004" y="1054"/>
      <point x="856" y="1077" type="qcurve" smooth="yes"/>
      <point x="670" y="1106"/>
      <point x="351" y="1016"/>
      <point x="309" y="864" type="qcurve" smooth="yes"/>
      <point x="272" y="731"/>
      <point x="473" y="497"/>
      <point x="669" y="464" type="qcurve" smooth="yes"/>
      <point x="923" y="421"/>
      <point x="1118" y="459"/>
      <point x="1262" y="597" type="qcurve"/>
      <point x="1272" y="597" type="line"/>
      <point x="1328" y="519" type="line"/>
      <point x="1134" y="177"/>
      <point x="779" y="43"/>
      <point x="550" y="70" type="qcurve" smooth="yes"/>
      <point x="282" y="102"/>
      <point x="44" y="565"/>
    </contour>
    <contour>
      <point x="443" y="-149" type="line"/>
      <point x="505" y="135" type="line"/>
      <point x="519" y="130" type="line"/>
      <point x="677" y="800" type="line"/>
      <point x="804" y="762" type="line"/>
      <point x="657" y="121" type="line"/>
      <point x="673" y="116" type="line"/>
      <point x="616" y="-137" type="line"/>
    </contour>
    <contour>
      <point x="837" y="1586" type="line"/>
      <point x="1008" y="1586" type="line"/>
      <point x="957" y="1357" type="line"/>
      <point x="942" y="1361" type="line"/>
      <point x="804" y="762" type="line"/>
      <point x="677" y="800" type="line"/>
      <point x="811" y="1389" type="line"/>
      <point x="795" y="1394" type="line"/>
    </contour>
  </outline>
</glyph>
<glyph name="tenge" format="2">
  <advance width="1248"/>
  <unicode hex="20B8"/>
  <outline>
    <contour>
      <point x="162" y="1198" type="line"/>
      <point x="252" y="1505" type="line"/>
      <point x="1270" y="1504" type="line"/>
      <point x="1254" y="1198" type="line"/>
    </contour>
    <contour>
      <point x="36" y="591" type="line"/>
      <point x="158" y="1180" type="line"/>
      <point x="1255" y="1180" type="line"/>
      <point x="1133" y="591" type="line"/>
      <point x="1033" y="591" type="line"/>
      <point x="1061" y="874" type="line"/>
      <point x="743" y="874" type="line"/>
      <point x="729" y="854" type="line"/>
      <point x="667" y="554" type="line"/>
      <point x="583" y="125" type="line"/>
      <point x="775" y="100" type="line"/>
      <point x="767" y="0" type="line"/>
      <point x="208" y="0" type="line"/>
      <point x="216" y="100" type="line"/>
      <point x="416" y="125" type="line"/>
      <point x="507" y="554" type="line"/>
      <point x="566" y="854" type="line"/>
      <point x="562" y="874" type="line"/>
      <point x="228" y="874" type="line"/>
      <point x="136" y="591" type="line"/>
    </contour>
  </outline>
</glyph>
<glyph name="rupeeIndian" format="2">
  <advance width="1156"/>
  <unicode hex="20B9"/>
  <outline>
    <contour>
      <point x="248" y="545" type="qcurve"/>
      <point x="229" y="848" type="line"/>
      <point x="270" y="882" type="line"/>
      <point x="522" y="885" type="line" smooth="yes"/>
      <point x="681" y="887"/>
      <point x="831" y="1054"/>
      <point x="843" y="1106" type="qcurve" smooth="yes"/>
      <point x="855" y="1158"/>
      <point x="735" y="1232"/>
      <point x="611" y="1232" type="qcurve" smooth="yes"/>
      <point x="507" y="1232"/>
      <point x="276" y="1222"/>
      <point x="122" y="1214" type="qcurve"/>
      <point x="219" y="1514" type="line"/>
      <point x="436" y="1499"/>
      <point x="735" y="1487"/>
      <point x="750" y="1485" type="qcurve"/>
      <point x="1308" y="1517" type="line"/>
      <point x="1232" y="1227" type="line"/>
      <point x="1143" y="1232"/>
      <point x="1086" y="1235"/>
      <point x="1025" y="1245" type="qcurve"/>
      <point x="1035" y="1216"/>
      <point x="1045" y="1115"/>
      <point x="1027" y="1032" type="qcurve" smooth="yes"/>
      <point x="976" y="799"/>
      <point x="707" y="566"/>
      <point x="570" y="566" type="qcurve" smooth="yes"/>
      <point x="509" y="566"/>
      <point x="302" y="558"/>
    </contour>
    <contour>
      <point x="547" y="782" type="line"/>
      <point x="698" y="810" type="line"/>
      <point x="711" y="708" type="line" smooth="yes"/>
      <point x="729" y="566"/>
      <point x="938" y="337"/>
      <point x="1125" y="306" type="qcurve"/>
      <point x="1035" y="-10" type="line"/>
      <point x="959" y="-10" type="line" smooth="yes"/>
      <point x="759" y="-10"/>
      <point x="625" y="269"/>
      <point x="590" y="501" type="qcurve" smooth="yes"/>
    </contour>
    <contour>
      <point x="208" y="915" type="line"/>
      <point x="239" y="1194" type="line"/>
      <point x="926" y="1170" type="line"/>
      <point x="926" y="1175" type="line"/>
      <point x="1217" y="1195" type="line"/>
      <point x="1177" y="914" type="line"/>
      <point x="896" y="904" type="line"/>
      <point x="896" y="918" type="line"/>
    </contour>
  </outline>
</glyph>
<glyph name="liraTurkish" format="2">
  <advance width="1282"/>
  <unicode hex="20BA"/>
  <outline>
    <contour>
      <point x="211" y="349" type="line"/>
      <point x="114" y="635" type="line"/>
      <point x="466" y="770" type="line"/>
      <point x="466" y="766" type="line"/>
      <point x="837" y="915" type="line"/>
      <point x="802" y="573" type="line"/>
      <point x="425" y="437" type="line"/>
      <point x="425" y="433" type="line"/>
    </contour>
    <contour>
      <point x="213" y="722" type="line"/>
      <point x="123" y="1040" type="line"/>
      <point x="509" y="1174" type="line"/>
      <point x="509" y="1171" type="line"/>
      <point x="895" y="1315" type="line"/>
      <point x="850" y="959" type="line"/>
      <point x="482" y="821" type="line"/>
      <point x="482" y="816" type="line"/>
    </contour>
    <contour>
      <point x="478" y="420" type="line"/>
      <point x="518" y="393" type="line"/>
      <point x="676" y="414"/>
      <point x="1040" y="589"/>
      <point x="1089" y="784" type="qcurve" smooth="yes"/>
      <point x="1138" y="978" type="line"/>
      <point x="1260" y="978" type="line"/>
      <point x="1177" y="400" type="line"/>
      <point x="1064" y="246"/>
      <point x="662" y="48"/>
      <point x="425" y="-8" type="qcurve"/>
      <point x="300" y="-29" type="line"/>
      <point x="213" y="47" type="line"/>
      <point x="254" y="132" type="line"/>
      <point x="381" y="754" type="line"/>
      <point x="495" y="1352" type="line"/>
      <point x="294" y="1386" type="line"/>
      <point x="307" y="1500" type="line"/>
      <point x="879" y="1500" type="line"/>
      <point x="866" y="1386" type="line"/>
      <point x="659" y="1352" type="line"/>
      <point x="541" y="754" type="line"/>
    </contour>
  </outline>
</glyph>
<glyph name="manat" format="2">
  <advance width="1582"/>
  <unicode hex="20BC"/>
  <outline>
    <contour>
      <point x="754" y="302" type="line"/>
      <point x="778" y="788" type="line"/>
      <point x="877" y="1351" type="line"/>
      <point x="957" y="1570" type="line"/>
      <point x="1158" y="1587" type="line"/>
      <point x="1166" y="1350" type="line"/>
      <point x="1062" y="782" type="line"/>
      <point x="928" y="330" type="line"/>
    </contour>
    <contour>
      <point x="1503" y="114" type="line"/>
      <point x="1489" y="0" type="line"/>
      <point x="962" y="0" type="line"/>
      <point x="976" y="114" type="line"/>
      <point x="1147" y="138" type="line"/>
      <point x="1250" y="610" type="line" smooth="yes"/>
      <point x="1270" y="702"/>
      <point x="1305" y="950"/>
      <point x="1305" y="1017" type="qcurve" smooth="yes"/>
      <point x="1305" y="1136"/>
      <point x="1158" y="1309"/>
      <point x="1017" y="1309" type="qcurve" smooth="yes"/>
      <point x="863" y="1309"/>
      <point x="656" y="1127"/>
      <point x="609" y="910" type="qcurve" smooth="yes"/>
      <point x="565" y="706" type="line"/>
      <point x="467" y="138" type="line"/>
      <point x="654" y="114" type="line"/>
      <point x="640" y="0" type="line"/>
      <point x="-79" y="0" type="line"/>
      <point x="-65" y="114" type="line"/>
      <point x="110" y="138" type="line"/>
      <point x="221" y="706" type="line"/>
      <point x="261" y="911" type="line" smooth="yes"/>
      <point x="316" y="1193"/>
      <point x="721" y="1426"/>
      <point x="1015" y="1426" type="qcurve" smooth="yes"/>
      <point x="1284" y="1426"/>
      <point x="1483" y="1202"/>
      <point x="1480" y="1040" type="qcurve" smooth="yes"/>
      <point x="1479" y="960"/>
      <point x="1447" y="789"/>
      <point x="1412" y="610" type="qcurve" smooth="yes"/>
      <point x="1320" y="138" type="line"/>
    </contour>
  </outline>
</glyph>
<glyph name="ruble" format="2">
	<unicode hex="20BD"/>
	<advance width="1165"/>
	<outline>
		<contour>
			<point x="-4" y="209" type="line"/>
			<point x="54" y="445" type="line"/>
			<point x="882" y="455" type="line"/>
			<point x="819" y="179" type="line"/>
		</contour>
		<contour>
			<point x="-11" y="0" type="line"/>
			<point x="-12" y="100" type="line"/>
			<point x="185" y="127" type="line"/>
			<point x="307" y="754" type="line"/>
			<point x="412" y="1362" type="line"/>
			<point x="229" y="1386" type="line"/>
			<point x="242" y="1500" type="line"/>
			<point x="814" y="1500" type="line" smooth="yes"/>
			<point x="1031" y="1500"/>
			<point x="1235" y="1237"/>
			<point x="1193" y="1025" type="qcurve" smooth="yes"/>
			<point x="1153" y="824"/>
			<point x="818" y="489"/>
			<point x="619" y="489" type="qcurve" smooth="yes"/>
			<point x="520" y="489"/>
			<point x="198" y="529"/>
			<point x="75" y="560" type="qcurve"/>
			<point x="171" y="881" type="line"/>
			<point x="301" y="851"/>
			<point x="579" y="797"/>
			<point x="672" y="797" type="qcurve" smooth="yes"/>
			<point x="827" y="797"/>
			<point x="1000" y="875"/>
			<point x="1011" y="983" type="qcurve" smooth="yes"/>
			<point x="1020" y="1076"/>
			<point x="893" y="1185"/>
			<point x="747" y="1185" type="qcurve" smooth="yes"/>
			<point x="562" y="1185" type="line"/>
			<point x="536" y="1163" type="line"/>
			<point x="469" y="764" type="line"/>
			<point x="348" y="122" type="line"/>
			<point x="548" y="100" type="line"/>
			<point x="539" y="0" type="line"/>
		</contour>
	</outline>
</glyph>
<glyph name="numero" format="2">
  <advance width="2899"/>
  <unicode hex="2116"/>
  <outline>
    <contour>
      <point x="1977" y="245" type="qcurve" smooth="yes"/>
      <point x="1994" y="410"/>
      <point x="1996" y="413"/>
      <point x="2379" y="399" type="qcurve" smooth="yes"/>
      <point x="2774" y="387"/>
      <point x="2776" y="386"/>
      <point x="2752" y="205" type="qcurve" smooth="yes"/>
      <point x="2733" y="54"/>
      <point x="2731" y="52"/>
      <point x="2345" y="58" type="qcurve" smooth="yes"/>
      <point x="1958" y="63"/>
      <point x="1958" y="66"/>
    </contour>
    <contour>
      <point x="-60" y="0" type="line"/>
      <point x="-51" y="100" type="line"/>
      <point x="145" y="125" type="line"/>
      <point x="268" y="754" type="line"/>
      <point x="382" y="1362" type="line"/>
      <point x="199" y="1386" type="line"/>
      <point x="212" y="1500" type="line"/>
      <point x="889" y="1500" type="line"/>
      <point x="1135" y="820" type="line"/>
      <point x="1327" y="281" type="line"/>
      <point x="1403" y="754" type="line"/>
      <point x="1518" y="1362" type="line"/>
      <point x="1317" y="1386" type="line"/>
      <point x="1333" y="1500" type="line"/>
      <point x="2137" y="1500" type="line"/>
      <point x="2121" y="1386" type="line"/>
      <point x="1927" y="1362" type="line"/>
      <point x="1809" y="754" type="line"/>
      <point x="1679" y="0" type="line"/>
      <point x="1267" y="0" type="line"/>
      <point x="995" y="748" type="line"/>
      <point x="783" y="1328" type="line"/>
      <point x="674" y="753" type="line"/>
      <point x="555" y="124" type="line"/>
      <point x="745" y="100" type="line"/>
      <point x="736" y="0" type="line"/>
    </contour>
    <contour>
      <point x="2063" y="1026" type="qcurve" smooth="yes"/>
      <point x="2104" y="1240"/>
      <point x="2380" y="1524"/>
      <point x="2561" y="1510" type="qcurve" smooth="yes"/>
      <point x="2742" y="1496"/>
      <point x="2908" y="1197"/>
      <point x="2864" y="969" type="qcurve" smooth="yes"/>
      <point x="2824" y="755"/>
      <point x="2549" y="464"/>
      <point x="2367" y="478" type="qcurve" smooth="yes"/>
      <point x="2186" y="492"/>
      <point x="2019" y="795"/>
    </contour>
    <contour>
      <point x="2225" y="1031" type="qcurve" smooth="yes"/>
      <point x="2209" y="945"/>
      <point x="2299" y="816"/>
      <point x="2417" y="806" type="qcurve" smooth="yes"/>
      <point x="2544" y="797"/>
      <point x="2690" y="896"/>
      <point x="2701" y="982" type="qcurve" smooth="yes"/>
      <point x="2712" y="1068"/>
      <point x="2602" y="1189"/>
      <point x="2484" y="1198" type="qcurve" smooth="yes"/>
      <point x="2356" y="1208"/>
      <point x="2241" y="1117"/>
    </contour>
  </outline>
</glyph>
<glyph name="eight.lc" format="2">
  <advance width="1015"/>
  <outline>
    <contour>
      <point x="383" y="845" type="qcurve" smooth="yes"/>
      <point x="595" y="929"/>
      <point x="689" y="1033"/>
      <point x="684" y="1098" type="qcurve" smooth="yes"/>
      <point x="678" y="1172"/>
      <point x="606" y="1251"/>
      <point x="540" y="1251" type="qcurve" smooth="yes"/>
      <point x="471" y="1251"/>
      <point x="342" y="1131"/>
      <point x="344" y="1052" type="qcurve" smooth="yes"/>
      <point x="346" y="971"/>
      <point x="461" y="828"/>
      <point x="581" y="759" type="qcurve" smooth="yes"/>
      <point x="730" y="674"/>
      <point x="889" y="514"/>
      <point x="893" y="400" type="qcurve" smooth="yes"/>
      <point x="898" y="218"/>
      <point x="595" y="-21"/>
      <point x="371" y="-21" type="qcurve" smooth="yes"/>
      <point x="185" y="-21"/>
      <point x="-36" y="143"/>
      <point x="-41" y="324" type="qcurve" smooth="yes"/>
      <point x="-47" y="512"/>
      <point x="140" y="749"/>
    </contour>
    <contour>
      <point x="581" y="614" type="qcurve" smooth="yes"/>
      <point x="335" y="500"/>
      <point x="196" y="430"/>
      <point x="193" y="400" type="qcurve" smooth="yes"/>
      <point x="190" y="371"/>
      <point x="279" y="318"/>
      <point x="392" y="318" type="qcurve"/>
      <point x="569" y="318"/>
      <point x="705" y="374"/>
      <point x="705" y="422" type="qcurve" smooth="yes"/>
      <point x="705" y="484"/>
      <point x="579" y="593"/>
      <point x="473" y="651" type="qcurve" smooth="yes"/>
      <point x="374" y="705"/>
      <point x="188" y="876"/>
      <point x="184" y="1016" type="qcurve" smooth="yes"/>
      <point x="180" y="1153"/>
      <point x="409" y="1357"/>
      <point x="626" y="1357" type="qcurve" smooth="yes"/>
      <point x="760" y="1357"/>
      <point x="935" y="1230"/>
      <point x="942" y="1086" type="qcurve" smooth="yes"/>
      <point x="949" y="935"/>
      <point x="817" y="723"/>
    </contour>
  </outline>
</glyph>
<glyph name="eight.tab" format="2">
	<advance width="1000"/>
	<outline>
		<contour>
			<point x="470" y="921" type="line" smooth="yes"/>
			<point x="585" y="987"/>
			<point x="681" y="1095"/>
			<point x="681" y="1155" type="qcurve" smooth="yes"/>
			<point x="681" y="1231"/>
			<point x="603" y="1305"/>
			<point x="538" y="1305" type="qcurve" smooth="yes"/>
			<point x="464" y="1305"/>
			<point x="368" y="1222"/>
			<point x="368" y="1173" type="qcurve" smooth="yes"/>
			<point x="368" y="1082"/>
			<point x="505" y="944"/>
			<point x="609" y="867" type="qcurve" smooth="yes"/>
			<point x="715" y="790"/>
			<point x="908" y="577"/>
			<point x="908" y="449" type="qcurve" smooth="yes"/>
			<point x="908" y="268"/>
			<point x="586" y="-29"/>
			<point x="374" y="-29" type="qcurve" smooth="yes"/>
			<point x="193" y="-29"/>
			<point x="-28" y="160"/>
			<point x="-28" y="318" type="qcurve" smooth="yes"/>
			<point x="-28" y="494"/>
			<point x="207" y="770"/>
			<point x="381" y="870" type="qcurve" smooth="yes"/>
		</contour>
		<contour>
			<point x="593" y="702" type="line" smooth="yes"/>
			<point x="414" y="591"/>
			<point x="268" y="478"/>
			<point x="268" y="399" type="qcurve" smooth="yes"/>
			<point x="268" y="341"/>
			<point x="356" y="265"/>
			<point x="481" y="265" type="qcurve" smooth="yes"/>
			<point x="584" y="265"/>
			<point x="740" y="341"/>
			<point x="740" y="427" type="qcurve" smooth="yes"/>
			<point x="740" y="533"/>
			<point x="560" y="676"/>
			<point x="487" y="729" type="qcurve" smooth="yes"/>
			<point x="414" y="782"/>
			<point x="217" y="975"/>
			<point x="217" y="1132" type="qcurve" smooth="yes"/>
			<point x="217" y="1287"/>
			<point x="485" y="1523"/>
			<point x="672" y="1523" type="qcurve" smooth="yes"/>
			<point x="816" y="1523"/>
			<point x="991" y="1352"/>
			<point x="991" y="1212" type="qcurve" smooth="yes"/>
			<point x="991" y="1065"/>
			<point x="851" y="861"/>
			<point x="687" y="760" type="qcurve" smooth="yes"/>
		</contour>
	</outline>
</glyph>
<glyph name="eightsuperior" format="2">
  <advance width="748"/>
  <outline>
    <contour>
      <point x="414" y="1197" type="line" smooth="yes"/>
      <point x="523" y="1244"/>
      <point x="605" y="1290"/>
      <point x="599" y="1323" type="qcurve" smooth="yes"/>
      <point x="595" y="1344"/>
      <point x="552" y="1355"/>
      <point x="501" y="1355" type="qcurve" smooth="yes"/>
      <point x="434" y="1355"/>
      <point x="360" y="1346"/>
      <point x="362" y="1324" type="qcurve" smooth="yes"/>
      <point x="367" y="1270"/>
      <point x="455" y="1195"/>
      <point x="529" y="1149" type="qcurve" smooth="yes"/>
      <point x="604" y="1104"/>
      <point x="736" y="988"/>
      <point x="739" y="902" type="qcurve" smooth="yes"/>
      <point x="743" y="794"/>
      <point x="522" y="638"/>
      <point x="375" y="638" type="qcurve" smooth="yes"/>
      <point x="249" y="638"/>
      <point x="93" y="747"/>
      <point x="90" y="838" type="qcurve" smooth="yes"/>
      <point x="86" y="968"/>
      <point x="212" y="1109"/>
      <point x="343" y="1166" type="qcurve" smooth="yes"/>
    </contour>
    <contour>
      <point x="473" y="1047" type="line" smooth="yes"/>
      <point x="358" y="996"/>
      <point x="256" y="943"/>
      <point x="262" y="889" type="qcurve" smooth="yes"/>
      <point x="265" y="859"/>
      <point x="313" y="830"/>
      <point x="383" y="830" type="qcurve" smooth="yes"/>
      <point x="483" y="830"/>
      <point x="598" y="845"/>
      <point x="595" y="877" type="qcurve" smooth="yes"/>
      <point x="590" y="926"/>
      <point x="480" y="1017"/>
      <point x="428" y="1048" type="qcurve" smooth="yes"/>
      <point x="377" y="1080"/>
      <point x="237" y="1205"/>
      <point x="233" y="1298" type="qcurve" smooth="yes"/>
      <point x="230" y="1389"/>
      <point x="419" y="1527"/>
      <point x="549" y="1527" type="qcurve" smooth="yes"/>
      <point x="639" y="1527"/>
      <point x="771" y="1440"/>
      <point x="773" y="1377" type="qcurve" smooth="yes"/>
      <point x="776" y="1271"/>
      <point x="679" y="1138"/>
      <point x="550" y="1081" type="qcurve" smooth="yes"/>
    </contour>
  </outline>
</glyph>
<glyph name="five.lc" format="2">
  <advance width="897"/>
  <outline>
    <contour>
      <point x="557" y="150" type="qcurve" smooth="yes"/>
      <point x="559" y="198"/>
      <point x="438" y="255"/>
      <point x="266" y="242" type="qcurve" smooth="yes"/>
      <point x="138" y="232" type="line"/>
      <point x="41" y="450" type="line"/>
      <point x="218" y="1062" type="line"/>
      <point x="250" y="1095" type="line"/>
      <point x="889" y="1095" type="line"/>
      <point x="859" y="929" type="line"/>
      <point x="445" y="929" type="line"/>
      <point x="434" y="918" type="line"/>
      <point x="381" y="728"/>
      <point x="359" y="628"/>
      <point x="321" y="583" type="qcurve"/>
      <point x="374" y="623" type="line"/>
      <point x="562" y="623"/>
      <point x="736" y="401"/>
      <point x="735" y="146" type="qcurve" smooth="yes"/>
      <point x="734" y="-96"/>
      <point x="316" y="-386"/>
      <point x="-16" y="-386" type="qcurve" smooth="yes"/>
      <point x="-63" y="-386"/>
      <point x="-174" y="-370"/>
      <point x="-209" y="-362" type="qcurve"/>
      <point x="-96" y="-27" type="line"/>
      <point x="-57" y="-32"/>
      <point x="4" y="-44"/>
      <point x="45" y="-44" type="qcurve" smooth="yes"/>
      <point x="300" y="-44"/>
      <point x="553" y="44"/>
    </contour>
  </outline>
</glyph>
<glyph name="five.tab" format="2">
	<advance width="1000"/>
	<outline>
		<contour>
			<point x="-86" y="202" type="qcurve" smooth="yes"/>
			<point x="-86" y="347"/>
			<point x="1" y="521"/>
			<point x="57" y="569" type="qcurve"/>
			<point x="167" y="564" type="line"/>
			<point x="167" y="533" type="line" smooth="yes"/>
			<point x="167" y="453"/>
			<point x="230" y="359"/>
			<point x="335" y="359" type="qcurve" smooth="yes"/>
			<point x="488" y="359"/>
			<point x="663" y="466"/>
			<point x="663" y="548" type="qcurve" smooth="yes"/>
			<point x="663" y="630"/>
			<point x="522" y="730"/>
			<point x="359" y="679" type="qcurve" smooth="yes"/>
			<point x="246" y="644" type="line"/>
			<point x="159" y="850" type="line"/>
			<point x="336" y="1467" type="line"/>
			<point x="368" y="1500" type="line"/>
			<point x="1047" y="1500" type="line"/>
			<point x="1016" y="1324" type="line"/>
			<point x="620" y="1324" type="line"/>
			<point x="609" y="1313" type="line"/>
			<point x="556" y="1123"/>
			<point x="534" y="1037"/>
			<point x="508" y="1001" type="qcurve"/>
			<point x="453" y="970" type="line"/>
			<point x="666" y="970"/>
			<point x="858" y="758"/>
			<point x="858" y="566" type="qcurve" smooth="yes"/>
			<point x="858" y="298"/>
			<point x="515" y="-24"/>
			<point x="259" y="-24" type="qcurve" smooth="yes"/>
			<point x="99" y="-24"/>
			<point x="-86" y="107"/>
		</contour>
	</outline>
</glyph>
<glyph name="fivesuperior" format="2">
  <advance width="705"/>
  <outline>
    <contour>
      <point x="45" y="785" type="qcurve" smooth="yes"/>
      <point x="45" y="866"/>
      <point x="121" y="955"/>
      <point x="186" y="973" type="qcurve"/>
      <point x="261" y="870" type="line"/>
      <point x="261" y="861" type="line"/>
      <point x="227" y="848"/>
      <point x="162" y="835"/>
      <point x="162" y="828" type="qcurve" smooth="yes"/>
      <point x="162" y="824"/>
      <point x="235" y="817"/>
      <point x="307" y="817" type="qcurve" smooth="yes"/>
      <point x="427" y="817"/>
      <point x="522" y="885"/>
      <point x="522" y="945" type="qcurve" smooth="yes"/>
      <point x="522" y="994"/>
      <point x="422" y="1059"/>
      <point x="334" y="1037" type="qcurve" smooth="yes"/>
      <point x="258" y="1016" type="line"/>
      <point x="167" y="1153" type="line"/>
      <point x="263" y="1481" type="line"/>
      <point x="285" y="1500" type="line"/>
      <point x="760" y="1500" type="line"/>
      <point x="728" y="1351" type="line"/>
      <point x="463" y="1351" type="line"/>
      <point x="455" y="1345" type="line"/>
      <point x="440" y="1289"/>
      <point x="417" y="1230"/>
      <point x="406" y="1207" type="qcurve"/>
      <point x="434" y="1219" type="line"/>
      <point x="546" y="1219"/>
      <point x="681" y="1084"/>
      <point x="681" y="953" type="qcurve" smooth="yes"/>
      <point x="681" y="793"/>
      <point x="473" y="610"/>
      <point x="321" y="610" type="qcurve" smooth="yes"/>
      <point x="190" y="610"/>
      <point x="45" y="712"/>
    </contour>
  </outline>
</glyph>
<glyph name="four.lc" format="2">
	<advance width="1146"/>
	<outline>
		<contour>
			<point x="-47" y="-113" type="line"/>
			<point x="-41" y="172" type="line"/>
			<point x="860" y="1108" type="line"/>
			<point x="943" y="1065" type="line"/>
			<point x="943" y="1025" type="line"/>
			<point x="775" y="152" type="line"/>
			<point x="766" y="119" type="line"/>
			<point x="703" y="-184" type="line"/>
			<point x="703" y="-342" type="line"/>
			<point x="536" y="-394" type="line"/>
			<point x="506" y="-329" type="line"/>
			<point x="599" y="115" type="line"/>
			<point x="609" y="152" type="line"/>
			<point x="673" y="469" type="line"/>
			<point x="498" y="292" type="line"/>
			<point x="502" y="282" type="line"/>
			<point x="695" y="282" type="line"/>
			<point x="1035" y="282" type="line"/>
			<point x="972" y="-114" type="line"/>
			<point x="638" y="-128" type="line"/>
		</contour>
	</outline>
</glyph>
<glyph name="four.tab" format="2">
  <advance width="1000"/>
  <outline>
    <contour>
      <point x="-27" y="332" type="line"/>
      <point x="-27" y="539" type="line"/>
      <point x="838" y="1541" type="line"/>
      <point x="921" y="1498" type="line"/>
      <point x="921" y="1458" type="line"/>
      <point x="751" y="520" type="line"/>
      <point x="742" y="487" type="line"/>
      <point x="678" y="176" type="line"/>
      <point x="678" y="18" type="line"/>
      <point x="501" y="-34" type="line"/>
      <point x="471" y="31" type="line"/>
      <point x="565" y="483" type="line"/>
      <point x="575" y="520" type="line"/>
      <point x="640" y="899" type="line"/>
      <point x="501" y="740" type="line"/>
      <point x="505" y="731" type="line"/>
      <point x="695" y="728" type="line"/>
      <point x="975" y="728" type="line"/>
      <point x="904" y="331" type="line"/>
      <point x="620" y="307" type="line"/>
    </contour>
  </outline>
</glyph>
<glyph name="nine.lc" format="2">
	<advance width="1116"/>
	<outline>
		<contour>
			<point x="990" y="698" type="qcurve" smooth="yes"/>
			<point x="998" y="354"/>
			<point x="496" y="-254"/>
			<point x="80" y="-381" type="qcurve"/>
			<point x="-67" y="-37" type="line"/>
			<point x="370" y="72"/>
			<point x="811" y="520"/>
			<point x="811" y="656" type="qcurve" smooth="yes"/>
			<point x="811" y="706"/>
			<point x="693" y="754"/>
			<point x="521" y="752" type="qcurve"/>
			<point x="363" y="750"/>
			<point x="220" y="693"/>
			<point x="220" y="667" type="qcurve" smooth="yes"/>
			<point x="220" y="641"/>
			<point x="318" y="623"/>
			<point x="445" y="623" type="qcurve" smooth="yes"/>
			<point x="498" y="623"/>
			<point x="576" y="640"/>
			<point x="607" y="656" type="qcurve"/>
			<point x="690" y="312" type="line"/>
			<point x="649" y="286"/>
			<point x="468" y="218"/>
			<point x="381" y="218" type="qcurve" smooth="yes"/>
			<point x="259" y="218"/>
			<point x="42" y="393"/>
			<point x="39" y="618" type="qcurve" smooth="yes"/>
			<point x="36" y="854"/>
			<point x="327" y="1120"/>
			<point x="552" y="1120" type="qcurve" smooth="yes"/>
			<point x="765" y="1120"/>
			<point x="986" y="882"/>
		</contour>
	</outline>
</glyph>
<glyph name="nine.tab" format="2">
	<advance width="1000"/>
	<outline>
		<contour>
			<point x="122" y="-70" type="qcurve"/>
			<point x="-35" y="312" type="line"/>
			<point x="255" y="402"/>
			<point x="783" y="748"/>
			<point x="787" y="925" type="qcurve" smooth="yes"/>
			<point x="789" y="1023"/>
			<point x="719" y="1094"/>
			<point x="535" y="1094" type="qcurve" smooth="yes"/>
			<point x="387" y="1094"/>
			<point x="262" y="1059"/>
			<point x="262" y="1028" type="qcurve" smooth="yes"/>
			<point x="262" y="1013"/>
			<point x="358" y="999"/>
			<point x="452" y="999" type="qcurve" smooth="yes"/>
			<point x="500" y="999"/>
			<point x="541" y="1002"/>
			<point x="577" y="1004" type="qcurve"/>
			<point x="641" y="668" type="line"/>
			<point x="607" y="630"/>
			<point x="494" y="565"/>
			<point x="415" y="565" type="qcurve" smooth="yes"/>
			<point x="264" y="565"/>
			<point x="79" y="773"/>
			<point x="79" y="932" type="qcurve" smooth="yes"/>
			<point x="79" y="1158"/>
			<point x="359" y="1508"/>
			<point x="573" y="1508" type="qcurve" smooth="yes"/>
			<point x="778" y="1508"/>
			<point x="971" y="1225"/>
			<point x="971" y="1010" type="qcurve" smooth="yes"/>
			<point x="971" y="675"/>
			<point x="505" y="73"/>
		</contour>
	</outline>
</glyph>
<glyph name="ninesuperior" format="2">
  <advance width="756"/>
  <outline>
    <contour>
      <point x="143" y="620" type="qcurve"/>
      <point x="53" y="848" type="line"/>
      <point x="305" y="919"/>
      <point x="623" y="1100"/>
      <point x="623" y="1195" type="qcurve" smooth="yes"/>
      <point x="623" y="1251"/>
      <point x="551" y="1305"/>
      <point x="472" y="1305" type="qcurve" smooth="yes"/>
      <point x="367" y="1305"/>
      <point x="287" y="1251"/>
      <point x="287" y="1228" type="qcurve" smooth="yes"/>
      <point x="287" y="1206"/>
      <point x="350" y="1181"/>
      <point x="414" y="1181" type="qcurve" smooth="yes"/>
      <point x="450" y="1181"/>
      <point x="500" y="1189"/>
      <point x="523" y="1201" type="qcurve"/>
      <point x="580" y="1036" type="line"/>
      <point x="555" y="1010"/>
      <point x="449" y="964"/>
      <point x="377" y="964" type="qcurve" smooth="yes"/>
      <point x="259" y="964"/>
      <point x="129" y="1088"/>
      <point x="129" y="1203" type="qcurve" smooth="yes"/>
      <point x="129" y="1337"/>
      <point x="312" y="1527"/>
      <point x="481" y="1527" type="qcurve" smooth="yes"/>
      <point x="647" y="1527"/>
      <point x="778" y="1359"/>
      <point x="778" y="1231" type="qcurve" smooth="yes"/>
      <point x="778" y="1032"/>
      <point x="438" y="695"/>
    </contour>
  </outline>
</glyph>
<glyph name="one.lc" format="2">
	<advance width="774"/>
	<outline>
		<contour>
			<point x="197" y="60" type="line"/>
			<point x="219" y="122"/>
			<point x="256" y="230"/>
			<point x="273" y="337" type="qcurve" smooth="yes"/>
			<point x="318" y="613" type="line"/>
			<point x="326" y="657" type="line"/>
			<point x="86" y="547" type="line"/>
			<point x="-17" y="813" type="line"/>
			<point x="539" y="1114" type="line"/>
			<point x="668" y="1004" type="line"/>
			<point x="626" y="961"/>
			<point x="510" y="795"/>
			<point x="496" y="710" type="qcurve" smooth="yes"/>
			<point x="460" y="489" type="line"/>
			<point x="417" y="185" type="line"/>
			<point x="385" y="-24" type="line"/>
		</contour>
	</outline>
</glyph>
<glyph name="one.tab" format="2">
  <advance width="1000"/>
  <outline>
    <contour>
      <point x="330" y="-1" type="line"/>
      <point x="352" y="61"/>
      <point x="388" y="169"/>
      <point x="406" y="276" type="qcurve" smooth="yes"/>
      <point x="537" y="1053" type="line"/>
      <point x="539" y="1066" type="line"/>
      <point x="236" y="911" type="line"/>
      <point x="127" y="1211" type="line"/>
      <point x="765" y="1554" type="line"/>
      <point x="919" y="1444" type="line"/>
      <point x="869" y="1375"/>
      <point x="700" y="1042"/>
      <point x="680" y="923" type="qcurve" smooth="yes"/>
      <point x="646" y="719" type="line"/>
      <point x="562" y="132" type="line"/>
      <point x="525" y="-80" type="line"/>
    </contour>
  </outline>
</glyph>
<glyph name="seven.lc" format="2">
  <advance width="1009"/>
  <outline>
    <contour>
      <point x="43" y="766" type="line"/>
      <point x="162" y="1100" type="line"/>
      <point x="1005" y="1100" type="line"/>
      <point x="1068" y="966" type="line"/>
      <point x="765" y="683"/>
      <point x="319" y="-18"/>
      <point x="254" y="-318" type="qcurve"/>
      <point x="98" y="-394" type="line"/>
      <point x="50" y="-320" type="line"/>
      <point x="130" y="44"/>
      <point x="437" y="745"/>
      <point x="572" y="928" type="qcurve"/>
      <point x="563" y="942" type="line"/>
      <point x="245" y="942" type="line"/>
      <point x="130" y="766" type="line"/>
    </contour>
  </outline>
</glyph>
<glyph name="seven.tab" format="2">
	<advance width="1000"/>
	<outline>
		<contour>
			<point x="110" y="1127" type="line"/>
			<point x="264" y="1500" type="line"/>
			<point x="1095" y="1500" type="line"/>
			<point x="1169" y="1306" type="line"/>
			<point x="860" y="946"/>
			<point x="489" y="297"/>
			<point x="397" y="44" type="qcurve"/>
			<point x="208" y="-32" type="line"/>
			<point x="163" y="42" type="line"/>
			<point x="258" y="348"/>
			<point x="620" y="1071"/>
			<point x="733" y="1319" type="qcurve"/>
			<point x="724" y="1333" type="line"/>
			<point x="353" y="1333" type="line"/>
			<point x="212" y="1127" type="line"/>
		</contour>
	</outline>
</glyph>
<glyph name="sevensuperior" format="2">
  <advance width="850"/>
  <outline>
    <contour>
      <point x="88" y="1244" type="line"/>
      <point x="199" y="1500" type="line"/>
      <point x="885" y="1500" type="line"/>
      <point x="955" y="1381" type="line"/>
      <point x="792" y="1198"/>
      <point x="559" y="852"/>
      <point x="513" y="694" type="qcurve"/>
      <point x="363" y="640" type="line"/>
      <point x="322" y="698" type="line"/>
      <point x="387" y="866"/>
      <point x="546" y="1199"/>
      <point x="627" y="1339" type="qcurve"/>
      <point x="622" y="1348" type="line"/>
      <point x="261" y="1346" type="line"/>
      <point x="185" y="1244" type="line"/>
    </contour>
  </outline>
</glyph>
<glyph name="six.lc" format="2">
  <advance width="1194"/>
  <outline>
    <contour>
      <point x="23" y="402" type="qcurve" smooth="yes"/>
      <point x="15" y="696"/>
      <point x="490" y="1237"/>
      <point x="906" y="1364" type="qcurve"/>
      <point x="1053" y="1020" type="line"/>
      <point x="616" y="911"/>
      <point x="202" y="580"/>
      <point x="202" y="444" type="qcurve" smooth="yes"/>
      <point x="202" y="394"/>
      <point x="320" y="346"/>
      <point x="492" y="348" type="qcurve"/>
      <point x="650" y="350"/>
      <point x="793" y="407"/>
      <point x="793" y="433" type="qcurve" smooth="yes"/>
      <point x="793" y="459"/>
      <point x="695" y="477"/>
      <point x="568" y="477" type="qcurve" smooth="yes"/>
      <point x="515" y="477"/>
      <point x="437" y="460"/>
      <point x="406" y="444" type="qcurve"/>
      <point x="323" y="788" type="line"/>
      <point x="364" y="814"/>
      <point x="545" y="882"/>
      <point x="632" y="882" type="qcurve" smooth="yes"/>
      <point x="754" y="882"/>
      <point x="971" y="707"/>
      <point x="974" y="482" type="qcurve" smooth="yes"/>
      <point x="977" y="246"/>
      <point x="686" y="-20"/>
      <point x="461" y="-20" type="qcurve" smooth="yes"/>
      <point x="248" y="-20"/>
      <point x="28" y="218"/>
    </contour>
  </outline>
</glyph>
<glyph name="six.tab" format="2">
  <advance width="1000"/>
  <outline>
    <contour>
      <point x="23" y="471" type="qcurve" smooth="yes"/>
      <point x="23" y="806"/>
      <point x="489" y="1408"/>
      <point x="872" y="1551" type="qcurve"/>
      <point x="1029" y="1169" type="line"/>
      <point x="739" y="1079"/>
      <point x="211" y="733"/>
      <point x="207" y="556" type="qcurve" smooth="yes"/>
      <point x="205" y="458"/>
      <point x="275" y="387"/>
      <point x="459" y="387" type="qcurve" smooth="yes"/>
      <point x="607" y="387"/>
      <point x="732" y="422"/>
      <point x="732" y="453" type="qcurve" smooth="yes"/>
      <point x="732" y="468"/>
      <point x="636" y="482"/>
      <point x="542" y="482" type="qcurve" smooth="yes"/>
      <point x="494" y="482"/>
      <point x="453" y="479"/>
      <point x="417" y="477" type="qcurve"/>
      <point x="353" y="813" type="line"/>
      <point x="387" y="851"/>
      <point x="500" y="916"/>
      <point x="579" y="916" type="qcurve" smooth="yes"/>
      <point x="730" y="916"/>
      <point x="915" y="708"/>
      <point x="915" y="549" type="qcurve" smooth="yes"/>
      <point x="915" y="323"/>
      <point x="635" y="-27"/>
      <point x="421" y="-27" type="qcurve" smooth="yes"/>
      <point x="216" y="-27"/>
      <point x="23" y="256"/>
    </contour>
  </outline>
</glyph>
<glyph name="sixsuperior" format="2">
  <advance width="767"/>
  <outline>
    <contour>
      <point x="109" y="936" type="qcurve" smooth="yes"/>
      <point x="109" y="1135"/>
      <point x="459" y="1474"/>
      <point x="744" y="1559" type="qcurve"/>
      <point x="834" y="1331" type="line"/>
      <point x="582" y="1250"/>
      <point x="264" y="1067"/>
      <point x="264" y="972" type="qcurve" smooth="yes"/>
      <point x="264" y="916"/>
      <point x="336" y="862"/>
      <point x="415" y="862" type="qcurve" smooth="yes"/>
      <point x="520" y="862"/>
      <point x="600" y="898"/>
      <point x="600" y="921" type="qcurve" smooth="yes"/>
      <point x="600" y="943"/>
      <point x="537" y="968"/>
      <point x="473" y="968" type="qcurve" smooth="yes"/>
      <point x="437" y="968"/>
      <point x="387" y="960"/>
      <point x="364" y="948" type="qcurve"/>
      <point x="307" y="1113" type="line"/>
      <point x="332" y="1139"/>
      <point x="438" y="1185"/>
      <point x="510" y="1185" type="qcurve" smooth="yes"/>
      <point x="628" y="1185"/>
      <point x="758" y="1051"/>
      <point x="758" y="936" type="qcurve" smooth="yes"/>
      <point x="758" y="802"/>
      <point x="575" y="640"/>
      <point x="406" y="640" type="qcurve" smooth="yes"/>
      <point x="240" y="640"/>
      <point x="109" y="808"/>
    </contour>
  </outline>
</glyph>
<glyph name="three.lc" format="2">
  <advance width="966"/>
  <outline>
    <contour>
      <point x="-24" y="-36" type="line"/>
      <point x="15" y="-41"/>
      <point x="46" y="-44"/>
      <point x="87" y="-44" type="qcurve" smooth="yes"/>
      <point x="292" y="-44"/>
      <point x="585" y="25"/>
      <point x="585" y="114" type="qcurve" smooth="yes"/>
      <point x="585" y="187"/>
      <point x="402" y="264"/>
      <point x="241" y="284" type="qcurve" smooth="yes"/>
      <point x="166" y="292" type="line"/>
      <point x="191" y="623" type="line"/>
      <point x="241" y="627" type="line" smooth="yes"/>
      <point x="427" y="642"/>
      <point x="631" y="722"/>
      <point x="631" y="752" type="qcurve" smooth="yes"/>
      <point x="631" y="773"/>
      <point x="548" y="789"/>
      <point x="480" y="789" type="qcurve" smooth="yes"/>
      <point x="376" y="789"/>
      <point x="244" y="743"/>
      <point x="199" y="708" type="qcurve"/>
      <point x="14" y="903" type="line"/>
      <point x="91" y="992"/>
      <point x="337" y="1119"/>
      <point x="483" y="1119" type="qcurve" smooth="yes"/>
      <point x="632" y="1119"/>
      <point x="810" y="972"/>
      <point x="807" y="836" type="qcurve" smooth="yes"/>
      <point x="804" y="682"/>
      <point x="630" y="505"/>
      <point x="465" y="472" type="qcurve"/>
      <point x="464" y="466" type="line"/>
      <point x="595" y="431"/>
      <point x="766" y="290"/>
      <point x="766" y="125" type="qcurve" smooth="yes"/>
      <point x="766" y="-98"/>
      <point x="355" y="-386"/>
      <point x="23" y="-386" type="qcurve" smooth="yes"/>
      <point x="-24" y="-386"/>
      <point x="-105" y="-379"/>
      <point x="-140" y="-371" type="qcurve"/>
    </contour>
  </outline>
</glyph>
<glyph name="three.tab" format="2">
  <advance width="1000"/>
  <outline>
    <contour>
      <point x="-114" y="285" type="qcurve" smooth="yes"/>
      <point x="-114" y="446"/>
      <point x="10" y="672"/>
      <point x="105" y="672" type="qcurve"/>
      <point x="119" y="664" type="line"/>
      <point x="118" y="657"/>
      <point x="117" y="647"/>
      <point x="117" y="635" type="qcurve" smooth="yes"/>
      <point x="117" y="513"/>
      <point x="223" y="391"/>
      <point x="350" y="391" type="qcurve" smooth="yes"/>
      <point x="480" y="391"/>
      <point x="684" y="458"/>
      <point x="684" y="511" type="qcurve" smooth="yes"/>
      <point x="684" y="555"/>
      <point x="518" y="600"/>
      <point x="319" y="618" type="qcurve" smooth="yes"/>
      <point x="243" y="625" type="line"/>
      <point x="293" y="1046" type="line"/>
      <point x="344" y="1050" type="line" smooth="yes"/>
      <point x="506" y="1063"/>
      <point x="729" y="1132"/>
      <point x="729" y="1185" type="qcurve" smooth="yes"/>
      <point x="729" y="1205"/>
      <point x="694" y="1231"/>
      <point x="660" y="1231" type="qcurve" smooth="yes"/>
      <point x="605" y="1231"/>
      <point x="466" y="1139"/>
      <point x="394" y="1051" type="qcurve"/>
      <point x="121" y="1316" type="line"/>
      <point x="200" y="1405"/>
      <point x="447" y="1532"/>
      <point x="603" y="1532" type="qcurve" smooth="yes"/>
      <point x="750" y="1532"/>
      <point x="920" y="1370"/>
      <point x="920" y="1229" type="qcurve" smooth="yes"/>
      <point x="920" y="1087"/>
      <point x="678" y="880"/>
      <point x="520" y="852" type="qcurve"/>
      <point x="519" y="846" type="line"/>
      <point x="655" y="830"/>
      <point x="877" y="648"/>
      <point x="877" y="478" type="qcurve" smooth="yes"/>
      <point x="877" y="255"/>
      <point x="473" y="-33"/>
      <point x="222" y="-33" type="qcurve" smooth="yes"/>
      <point x="66" y="-33"/>
      <point x="-114" y="138"/>
    </contour>
  </outline>
</glyph>
<glyph name="two.lc" format="2">
  <advance width="966"/>
  <outline>
    <contour>
      <point x="-120" y="6" type="qcurve"/>
      <point x="-225" y="182" type="line"/>
      <point x="-187" y="203"/>
      <point x="-67" y="281"/>
      <point x="-29" y="305" type="qcurve" smooth="yes"/>
      <point x="383" y="563"/>
      <point x="670" y="781"/>
      <point x="670" y="801" type="qcurve" smooth="yes"/>
      <point x="670" y="820"/>
      <point x="616" y="834"/>
      <point x="513" y="834" type="qcurve" smooth="yes"/>
      <point x="400" y="834"/>
      <point x="278" y="782"/>
      <point x="226" y="734" type="qcurve"/>
      <point x="20" y="904" type="line"/>
      <point x="106" y="999"/>
      <point x="338" y="1120"/>
      <point x="495" y="1120" type="qcurve"/>
      <point x="667" y="1120"/>
      <point x="849" y="985"/>
      <point x="854" y="847" type="qcurve" smooth="yes"/>
      <point x="860" y="672"/>
      <point x="500" y="352"/>
      <point x="285" y="214" type="qcurve"/>
      <point x="285" y="213" type="line"/>
      <point x="294" y="214"/>
      <point x="304" y="214"/>
      <point x="315" y="215" type="qcurve"/>
      <point x="403" y="199"/>
      <point x="508" y="173"/>
      <point x="625" y="146" type="qcurve"/>
      <point x="721" y="297" type="line"/>
      <point x="805" y="283" type="line"/>
      <point x="692" y="-30" type="line"/>
      <point x="538" y="9"/>
      <point x="257" y="69"/>
      <point x="126" y="67" type="qcurve" smooth="yes"/>
      <point x="57" y="66"/>
      <point x="-68" y="32"/>
    </contour>
  </outline>
</glyph>
<glyph name="two.tab" format="2">
	<advance width="1000"/>
	<outline>
		<contour>
			<point x="-18" y="7" type="qcurve"/>
			<point x="-192" y="265" type="line"/>
			<point x="-63" y="382" type="line" smooth="yes"/>
			<point x="376" y="780"/>
			<point x="748" y="1084"/>
			<point x="748" y="1151" type="qcurve" smooth="yes"/>
			<point x="748" y="1185"/>
			<point x="708" y="1219"/>
			<point x="678" y="1219" type="qcurve" smooth="yes"/>
			<point x="610" y="1219"/>
			<point x="463" y="1101"/>
			<point x="396" y="1006" type="qcurve"/>
			<point x="54" y="1284" type="line"/>
			<point x="127" y="1360"/>
			<point x="418" y="1531"/>
			<point x="586" y="1531" type="qcurve" smooth="yes"/>
			<point x="758" y="1531"/>
			<point x="945" y="1345"/>
			<point x="945" y="1191" type="qcurve" smooth="yes"/>
			<point x="945" y="952"/>
			<point x="592" y="457"/>
			<point x="314" y="217" type="qcurve"/>
			<point x="314" y="215" type="line"/>
			<point x="326" y="217"/>
			<point x="340" y="218"/>
			<point x="353" y="218" type="qcurve"/>
			<point x="460" y="196"/>
			<point x="529" y="182"/>
			<point x="675" y="152" type="qcurve"/>
			<point x="783" y="319" type="line"/>
			<point x="867" y="300" type="line"/>
			<point x="743" y="-30" type="line"/>
			<point x="605" y="7"/>
			<point x="361" y="78"/>
			<point x="230" y="75" type="qcurve" smooth="yes"/>
			<point x="161" y="73"/>
			<point x="35" y="42"/>
		</contour>
	</outline>
</glyph>
<glyph name="zero.lc" format="2">
  <advance width="1176"/>
  <outline>
    <contour>
      <point x="29" y="550" type="qcurve" smooth="yes"/>
      <point x="69" y="801"/>
      <point x="414" y="1124"/>
      <point x="648" y="1119" type="qcurve" smooth="yes"/>
      <point x="872" y="1114"/>
      <point x="1083" y="811"/>
      <point x="1044" y="556" type="qcurve" smooth="yes"/>
      <point x="1003" y="288"/>
      <point x="660" y="-22"/>
      <point x="426" y="-17" type="qcurve" smooth="yes"/>
      <point x="194" y="-12"/>
      <point x="-12" y="293"/>
    </contour>
    <contour>
      <point x="210" y="569" type="qcurve" smooth="yes"/>
      <point x="200" y="499"/>
      <point x="339" y="381"/>
      <point x="486" y="375" type="qcurve" smooth="yes"/>
      <point x="666" y="368"/>
      <point x="859" y="477"/>
      <point x="865" y="550" type="qcurve" smooth="yes"/>
      <point x="871" y="619"/>
      <point x="737" y="727"/>
      <point x="575" y="734" type="qcurve" smooth="yes"/>
      <point x="414" y="741"/>
      <point x="221" y="643"/>
    </contour>
  </outline>
</glyph>
<glyph name="zero.tab" format="2">
	<advance width="1000"/>
	<outline>
		<contour>
			<point x="62" y="746" type="qcurve" smooth="yes"/>
			<point x="122" y="1091"/>
			<point x="419" y="1520"/>
			<point x="643" y="1520" type="qcurve" smooth="yes"/>
			<point x="852" y="1520"/>
			<point x="1008" y="1097"/>
			<point x="951" y="754" type="qcurve" smooth="yes"/>
			<point x="891" y="390"/>
			<point x="604" y="-30"/>
			<point x="375" y="-30" type="qcurve" smooth="yes"/>
			<point x="160" y="-30"/>
			<point x="0" y="399"/>
		</contour>
		<contour>
			<point x="252" y="780" type="qcurve" smooth="yes"/>
			<point x="229" y="630"/>
			<point x="300" y="397"/>
			<point x="427" y="397" type="qcurve" smooth="yes"/>
			<point x="566" y="397"/>
			<point x="736" y="594"/>
			<point x="766" y="754" type="qcurve" smooth="yes"/>
			<point x="791" y="890"/>
			<point x="696" y="1095"/>
			<point x="567" y="1095" type="qcurve" smooth="yes"/>
			<point x="426" y="1095"/>
			<point x="272" y="910"/>
		</contour>
	</outline>
</glyph>
<glyph name="zerosuperior" format="2">
  <advance width="895"/>
  <outline>
    <contour>
      <point x="143" y="1086" type="qcurve" smooth="yes"/>
      <point x="171" y="1268"/>
      <point x="420" y="1532"/>
      <point x="572" y="1532" type="qcurve" smooth="yes"/>
      <point x="733.5422222222222" y="1532"/>
      <point x="894" y="1296"/>
      <point x="864" y="1092" type="qcurve" smooth="yes"/>
      <point x="838" y="908"/>
      <point x="591" y="641"/>
      <point x="438" y="641" type="qcurve" smooth="yes"/>
      <point x="275" y="641"/>
      <point x="113" y="881"/>
    </contour>
    <contour>
      <point x="302" y="1080" type="qcurve" smooth="yes"/>
      <point x="292" y="1020"/>
      <point x="393" y="969"/>
      <point x="484" y="969" type="qcurve" smooth="yes"/>
      <point x="582" y="969"/>
      <point x="694" y="1019"/>
      <point x="703.5422222222222" y="1077" type="qcurve" smooth="yes"/>
      <point x="713" y="1135"/>
      <point x="616" y="1200"/>
      <point x="523" y="1200" type="qcurve" smooth="yes"/>
      <point x="426" y="1200"/>
      <point x="312" y="1146"/>
    </contour>
  </outline>
</glyph>
